<?xml version="1.0"?>
<svg version="1.1" xmlns="http://www.w3.org/2000/svg" width="210px" height="40px" style=""><path fill="#00bdad" d="M35.142578125,30.7529296875l0-0.021484375l0,0.021484375q0,0.0107421875,0.0107421875,0.021484375t0.0107421875,0.021484375q0,0.04296875-0.0751953125,0.107421875t-0.0859375,0.107421875q0,0.1611328125-0.021484375,0.2255859375l0,0.12890625q0,0.2041015625-0.04296875,0.3759765625l0,0.107421875q0,0.2470703125-0.064453125,0.3759765625q0,0.021484375-0.03759765625,0.06982421875t-0.04833984375,0.05908203125q-0.0107421875,0.0322265625-0.021484375,0.10205078125t-0.021484375,0.10205078125q-0.0322265625,0.064453125-0.2685546875,0.4189453125q0,0.171875-0.107421875,0.38671875q-0.0537109375,0.2685546875-0.193359375,0.3759765625q0,0.38671875-0.3974609375,0.5478515625q-0.04296875,0.0537109375-0.1396484375,0.26318359375t-0.236328125,0.29541015625q-0.107421875,0.0751953125-0.3544921875,0.16650390625t-0.3330078125,0.15576171875q-0.322265625,0.193359375-0.38671875,0.1826171875q-0.107421875-0.0537109375-0.1181640625-0.064453125l-0.193359375,0.12890625q-0.04296875,0.021484375-0.13427734375,0.064453125t-0.13427734375,0.064453125q-0.0322265625,0.0107421875-0.12890625,0.01611328125t-0.150390625,0.02685546875q-0.04296875,0.021484375-0.1611328125,0.021484375q-0.21484375,0-0.322265625-0.107421875q-0.0751953125,0-0.1181640625-0.04296875q-0.04296875,0-0.365234375,0.107421875l-0.0966796875,0q-0.21484375,0-0.21484375-0.107421875q0-0.0966796875,0.107421875-0.150390625q-0.0322265625-0.0107421875-0.1396484375-0.04833984375t-0.1611328125-0.06982421875q-0.021484375-0.0107421875-0.0751953125-0.0322265625t-0.0966796875-0.03759765625t-0.0751953125-0.01611328125q-0.0322265625-0.0107421875-0.193359375-0.0859375q-0.2470703125-0.12890625-0.2685546875-0.12890625q-0.1181640625-0.0322265625-0.3115234375-0.22021484375t-0.30078125-0.33837890625q-0.0751953125-0.04296875-0.18798828125-0.171875t-0.14501953125-0.21484375q-0.38671875-0.38671875-0.4404296875-0.64453125q-0.0322265625-0.0322265625-0.064453125-0.0751953125t-0.04833984375-0.05908203125t-0.03759765625-0.01611328125q-0.04296875,0-0.1396484375,0.064453125q-0.1181640625,0.0859375-0.21484375,0.0859375q-0.04296875,0-0.13427734375-0.0107421875t-0.13427734375-0.0107421875l-0.064453125,0l-0.064453125,0q-0.04296875,0-0.107421875-0.021484375t-0.107421875-0.021484375q-0.0107421875,0-0.04296875,0.0107421875t-0.0537109375,0.0107421875q-0.2578125,0.064453125-0.34375,0.064453125q-0.1181640625,0-0.2041015625-0.04296875q-0.0107421875,0-0.0322265625-0.0107421875t-0.0322265625-0.0107421875q-0.021484375,0-0.06982421875,0.0107421875t-0.05908203125,0.0107421875q-0.04296875,0-0.0859375-0.04296875q-0.064453125,0.064453125-0.2041015625,0.064453125q-0.0537109375,0-0.17724609375-0.021484375t-0.17724609375-0.021484375q-0.064453125,0-0.150390625,0.04296875q-0.0859375,0.064453125-0.2900390625,0.064453125q-0.193359375,0-0.30078125-0.021484375q-0.2041015625-0.0107421875-0.880859375-0.107421875q-0.1396484375,0-0.2255859375-0.021484375l-0.0859375,0l-0.193359375,0l-0.0966796875,0q-0.04296875,0.021484375-0.107421875,0.021484375q-0.107421875,0-0.28466796875-0.0966796875t-0.24169921875-0.1181640625q-0.5263671875-0.0751953125-0.5908203125-0.1396484375q-0.04296875-0.0107421875-0.1396484375,0.0537109375t-0.107421875,0.064453125q-0.04296875,0.021484375-0.0859375,0.021484375q-0.064453125,0-0.064453125-0.0966796875q0-0.0751953125,0.0859375-0.12890625q-0.0322265625-0.021484375-0.34375-0.1396484375t-0.4296875-0.21484375q-0.6875-0.2578125-1.095703125-0.7626953125q-0.55859375-0.3544921875-0.6552734375-0.4833984375l-0.2900390625-0.1396484375l0-0.04296875l0-0.0859375q-0.04296875-0.021484375-0.150390625-0.12890625q-0.2470703125-0.1826171875-0.4189453125-0.751953125q-0.1826171875-0.236328125-0.2470703125-0.3544921875q-0.021484375-0.021484375-0.08056640625,0t-0.13427734375,0.04833984375t-0.1181640625,0.02685546875q-0.0859375,0-0.0859375-0.0966796875q0-0.04296875,0.021484375-0.0859375q0.0107421875-0.04296875,0.06982421875-0.14501953125t0.04833984375-0.16650390625q-0.0537109375-0.0537109375-0.0537109375-0.12890625q-0.0537109375-0.1181640625-0.107421875-0.3115234375q-0.0859375-0.21484375-0.150390625-0.322265625q-0.0537109375-0.0859375-0.107421875-0.0859375q-0.0107421875,0-0.064453125,0.021484375t-0.0966796875,0.021484375l-0.04296875,0q-0.107421875-0.0322265625-0.107421875-0.0966796875q0-0.04296875,0.0537109375-0.107421875t0.0966796875-0.0859375q0.021484375,0,0.021484375-0.064453125q0-0.0537109375-0.0751953125-0.25244140625t-0.0751953125-0.25244140625q-0.0859375-0.171875-0.0859375-0.4404296875l0-0.0859375q-0.021484375-0.064453125-0.021484375-0.1396484375l0-0.064453125q0-0.064453125-0.0859375-0.12890625q-0.0966796875-0.064453125-0.0966796875-0.171875q0-0.0751953125,0.04296875-0.1611328125q0.0107421875-0.0322265625,0.06982421875-0.107421875t0.06982421875-0.0859375q0-0.021484375-0.0107421875-0.06982421875t-0.0107421875-0.06982421875q0-0.04296875,0.0107421875-0.0859375l0.0107421875-0.04296875q-0.064453125-0.0966796875-0.064453125-0.3974609375q0-0.0751953125,0.0107421875-0.18798828125t0.0107421875-0.13427734375q-0.021484375-0.0859375-0.021484375-0.2685546875q0-0.171875-0.021484375-0.236328125q-0.0859375,0.04296875-0.1611328125,0.04296875q-0.12890625,0-0.12890625-0.1181640625q0-0.04296875,0.021484375-0.0859375q0.021484375-0.021484375,0.12890625-0.12353515625t0.1181640625-0.15576171875q0-0.021484375,0.0107421875-0.12353515625t0.0107421875-0.12353515625l0-0.064453125q0-0.2900390625,0.064453125-0.4189453125q0.0107421875-0.021484375,0.064453125-0.236328125t0.12890625-0.2900390625q0-0.0107421875-0.0107421875-0.04833984375t-0.0107421875-0.05908203125q0-0.107421875,0.2255859375-0.708984375q-0.0107421875-0.21484375,0.15576171875-0.58544921875t0.18798828125-0.53173828125q0.0322265625-0.1396484375,0.1826171875-0.2470703125q0-0.064453125,0.021484375-0.107421875q0.021484375-0.0751953125,0.107421875-0.12353515625t0.107421875-0.08056640625l0-0.04296875q0-0.1611328125,0.2255859375-0.30078125q0.04296875-0.0322265625,0.0966796875-0.107421875t0.0966796875-0.0966796875q0.04296875-0.0322265625,0.12890625-0.05908203125t0.1181640625-0.04833984375q0-0.1826171875,0.021484375-0.2470703125q0.064453125-0.12890625,0.279296875-0.2578125q0.0859375-0.1611328125,0.3759765625-0.3115234375q0.064453125-0.04296875,0.09130859375-0.06982421875t0.04296875-0.08056640625t0.04833984375-0.107421875q0.064453125-0.107421875,0.365234375-0.2255859375q0.04296875-0.021484375,0.13427734375-0.064453125t0.13427734375-0.064453125q0.0751953125-0.04296875,0.22021484375-0.15576171875t0.22021484375-0.15576171875q0.12890625-0.064453125,0.35986328125-0.12353515625t0.27392578125-0.06982421875q0.107421875-0.0322265625,0.16650390625,0.02685546875t0.05908203125,0.16650390625q0,0.1826171875-0.0859375,0.2685546875l0.0966796875-0.04833984375t0.11279296875-0.06982421875t0.09130859375-0.064453125q-0.107421875-0.0751953125-0.107421875-0.236328125q0-0.12890625,0.150390625-0.12890625q-0.021484375-0.04296875-0.021484375-0.1396484375q0-0.236328125,0.1396484375-0.236328125q0.021484375,0,0.107421875,0.04296875t0.107421875,0.04296875q0.0859375,0,0.32763671875-0.150390625t0.40283203125-0.1181640625q0.04296875,0.021484375,0.12890625,0.021484375q0.1396484375,0,0.37060546875-0.11279296875t0.28466796875-0.12353515625l0.0751953125,0q0.0859375,0,0.171875,0.04296875q0.064453125,0.064453125,0.0859375,0.064453125t0.0322265625-0.0107421875t0.03759765625-0.04296875t0.05908203125-0.0537109375q0.12890625-0.04296875,0.1611328125-0.04296875q0.04296875,0,0.21484375,0.04296875l0.04296875,0q0.04296875,0,0.14501953125-0.021484375t0.14501953125-0.021484375q0.21484375,0.04296875,0.3330078125,0.04296875l0.2578125,0l0.5048828125,0q0.193359375-0.064453125,0.2900390625-0.064453125q0.064453125,0,0.107421875,0.021484375q0.064453125,0.0322265625,0.17724609375,0.0537109375t0.17724609375,0.0537109375q0.0537109375,0,0.18798828125,0.0107421875t0.18798828125,0.0107421875l0.04296875,0l0.12890625,0l0.04296875,0q0.04296875,0,0.15576171875,0.0107421875t0.1826171875,0.01611328125t0.1611328125,0.03759765625t0.14501953125,0.0859375q0.2685546875,0.064453125,0.5693359375,0.2685546875q0.0751953125,0.0107421875,0.25244140625,0.08056640625t0.25244140625,0.06982421875q0.537109375,0.0751953125,0.6875,0.2255859375q0.322265625,0.1396484375,0.5048828125,0.3974609375l0.2578125,0.0859375l0.021484375,0.04296875l0,0.04296875q0,0.021484375,0.021484375,0.04296875q0.021484375,0,0.064453125,0.0322265625t0.0537109375,0.0322265625q0.0537109375,0.021484375,0.0966796875,0.0537109375l0.064453125,0.04833984375t0.0537109375,0.01611328125q0.021484375,0,0.171875-0.0751953125q0.171875-0.0859375,0.2470703125-0.0859375q0.04296875,0,0.064453125,0.021484375t0.021484375,0.064453125t-0.0537109375,0.10205078125t-0.13427734375,0.11279296875t-0.10205078125,0.0751953125q0.0107421875,0.0107421875,0.0322265625,0.021484375q0.0107421875,0,0.01611328125,0.00537109375t0.00537109375,0.01611328125q0.4296875,0.322265625,0.5048828125,0.4404296875q0.0322265625,0.021484375,0.193359375,0.19873046875t0.2900390625,0.19873046875q0.0322265625,0.0107421875,0.236328125,0.3115234375q0.1396484375,0.0859375,0.2041015625,0.193359375q0.1181640625,0.171875,0.12890625,0.21484375q0.0751953125,0.1181640625,0.171875,0.365234375t0.1396484375,0.322265625q0.21484375,0.2900390625,0.279296875,0.5693359375q0.2685546875,0.38671875,0.3115234375,0.859375q0.171875,0.4296875,0.171875,0.859375q0.0966796875,0.2255859375,0.0966796875,0.6123046875l0,0.1826171875q0.064453125,0.1611328125,0.064453125,0.5263671875q0,0.2041015625-0.04296875,0.3759765625q0.04296875,0.171875,0.04296875,0.34375q0,0.1826171875-0.04296875,0.3544921875q0,0.021484375,0.0107421875,0.064453125t0.0107421875,0.064453125q0,0.279296875-0.0966796875,0.515625q0,0.4189453125-0.0859375,0.5908203125q0,0.021484375,0.0107421875,0.0537109375t0.0107421875,0.0537109375q0,0.1181640625-0.04296875,0.26318359375t-0.11279296875,0.31689453125t-0.08056640625,0.21484375q0,0.021484375-0.1826171875,0.3759765625q-0.0107421875,0.0537109375-0.0322265625,0.0966796875q-0.0107421875,0.021484375-0.0107421875,0.0322265625t0.064453125,0.107421875q0,0.0107421875,0.0107421875,0.03759765625t0.0107421875,0.04833984375q0,0.0322265625-0.04296875,0.1181640625q-0.0537109375,0.0859375-0.279296875,0.2578125l0,0.04296875q0,0.0751953125-0.04296875,0.1181640625q-0.04296875,0.021484375-0.0751953125,0.0537109375t-0.03759765625,0.05908203125t-0.021484375,0.08056640625t-0.02685546875,0.0859375q-0.150390625,0.30078125-0.171875,0.4189453125t-0.14501953125,0.24169921875t-0.23095703125,0.11279296875q-0.0537109375,0.021484375-0.11279296875,0.20947265625t-0.12353515625,0.23095703125q-0.0537109375,0.0537109375-0.2470703125,0.150390625q0,0.12890625-0.0859375,0.1826171875q-0.0537109375,0.0322265625-0.16650390625,0.12890625t-0.18798828125,0.12890625q-0.0859375,0.0322265625-0.22021484375,0.171875t-0.22021484375,0.1826171875q-0.21484375,0.107421875-0.21484375,0.3115234375q0,0.0859375,0.064453125,0.150390625q0.04296875,0.021484375,0.107421875,0.0859375t0.107421875,0.0859375q0.021484375,0,0.05908203125-0.0107421875t0.05908203125-0.0107421875q0.064453125,0,0.150390625,0.04296875q0.0322265625,0,0.3115234375,0.1396484375l0.04296875,0q0.193359375,0,0.34375-0.0966796875q0.0537109375-0.0751953125,0.23095703125-0.20947265625t0.20947265625-0.19873046875q0.0107421875-0.0322265625,0.04833984375-0.171875t0.06982421875-0.2041015625l0-0.04296875q0-0.193359375,0.12890625-0.580078125q0.064453125-0.2255859375,0.064453125-0.5263671875q-0.021484375-0.04296875-0.021484375-0.0859375q0-0.1181640625,0.15576171875-0.16650390625t0.37060546875-0.04833984375l0.2255859375,0q0.021484375,0,0.0859375-0.01611328125t0.107421875-0.01611328125q0.279296875,0,0.3974609375,0.0751953125q0.5693359375,0,0.880859375,0.021484375q0.21484375,0.04296875,0.2578125,0.236328125q0.021484375,0.021484375,0.021484375,0.064453125l0,0.064453125q0.1181640625,0.064453125,0.1396484375,0.0966796875z M34.154296875,32.267578125l-0.0966796875,0.021484375q0.0322265625,0,0.0966796875-0.021484375q0.12890625-0.0966796875,0.150390625-0.193359375q-0.73046875,0.4189453125-2.2021484375,1.26220703125t-2.2021484375,1.26220703125q0.0322265625,0.0107421875,0.05908203125,0.021484375t0.03759765625,0.01611328125t0.021484375,0.00537109375l0.064453125-0.04296875q0.064453125-0.0322265625,0.18798828125-0.0966796875t0.18798828125-0.0966796875q0.7197265625-0.4296875,0.7626953125-0.4619140625q0.2578125-0.171875,1.6328125-0.9990234375q0.9560546875-0.5693359375,1.2998046875-0.6767578125z M34.369140625,30.8173828125q-0.04296875,0.04296875-0.150390625,0.04296875q-0.021484375,0.021484375-0.0537109375,0.064453125t-0.0537109375,0.064453125q-0.04296875,0.04296875-0.1181640625,0.12353515625t-0.1396484375,0.14501953125t-0.1181640625,0.107421875q0.150390625-0.0751953125,0.3974609375-0.2470703125t0.365234375-0.236328125q0-0.064453125-0.064453125-0.064453125l-0.064453125,0z M33.40234375,30.8388671875q-0.04296875,0.021484375-0.0859375,0.021484375q-0.064453125,0-0.0859375,0.107421875q0,0.0322265625-0.0537109375,0.2470703125q0.2470703125-0.1181640625,0.515625-0.3544921875q-0.1826171875,0-0.2900390625-0.021484375z M32.8115234375,31.8701171875q0-0.04296875,0.16650390625-0.1826171875t0.37060546875-0.29541015625t0.2470703125-0.19873046875q-0.0322265625,0.0322265625-0.236328125,0.13427734375t-0.3115234375,0.10205078125q-0.0859375,0-0.0859375-0.0859375l0-0.064453125q0.0107421875-0.064453125,0.04296875-0.236328125t0.04296875-0.2685546875l-0.021484375,0q-0.0859375,0.2578125-0.0859375,0.4404296875l0,0.064453125q0,0.4189453125-0.12890625,0.5908203125z M31.0068359375,32.9443359375q-0.0537109375,0-0.15576171875,0.1396484375t-0.2041015625,0.31689453125t-0.12353515625,0.20947265625q-0.38671875,0.580078125-0.4189453125,0.6337890625q2.36328125-1.3642578125,2.4814453125-1.4287109375q0.2470703125-0.1396484375,0.7412109375-0.4404296875t0.751953125-0.4404296875q0.0537109375-0.0322265625,0.16650390625-0.0859375t0.16650390625-0.0859375q0.064453125-0.021484375,0.064453125-0.3759765625l0-0.171875q-0.1181640625,0.064453125-1.6005859375,1.03125q-0.0322265625,0.021484375-0.09130859375,0.0537109375t-0.0966796875,0.04833984375t-0.0751953125,0.0537109375t-0.04833984375,0.08056640625q-0.1396484375,0.3544921875-0.3330078125,0.3544921875q-0.04296875,0-0.064453125-0.021484375q0.0107421875,0.12890625-0.0966796875,0.19873046875t-0.2470703125,0.09130859375q-0.12890625,0.12890625-0.2470703125,0.12890625q-0.064453125,0-0.107421875-0.04296875q-0.30078125-0.2041015625-0.4619140625-0.2470703125z M30.65234375,32.9013671875q-0.0966796875-0.064453125-0.12890625-0.064453125t-0.05908203125,0.02685546875l-0.0751953125,0.0751953125t-0.09130859375,0.08056640625q-0.4619140625,0.2900390625-0.90234375,0.6123046875q0.2041015625-0.1181640625,0.623046875-0.35986328125t0.6337890625-0.37060546875z M28.826171875,33.7822265625l0.04296875-0.021484375q-0.021484375,0-0.04296875,0.021484375z M28.697265625,33.5888671875l0.236328125-0.12890625l-0.236328125,0.12890625q0.794921875-0.4404296875,1.3212890625-0.837890625q-1.2998046875,0.7626953125-1.3642578125,0.794921875z M28.1171875,32.7509765625l0.0966796875-0.04296875l-0.0966796875,0.04296875q0.5048828125-0.193359375,1.3857421875-0.81640625q0.0966796875-0.0537109375,0.4404296875-0.30078125q0.0322265625-0.1611328125,0.2041015625-0.2470703125q0.021484375-0.021484375,0.30078125-0.18798828125t0.2900390625-0.29541015625q-0.2900390625,0.171875-1.24609375,0.77880859375t-1.50390625,0.89697265625q0.0966796875,0.064453125,0.12890625,0.171875z M23.6806640625,32.6865234375l0.236328125-0.150390625l-0.236328125,0.150390625q1.0849609375-0.6767578125,2.01953125-1.2998046875l-0.064453125,0q-0.0966796875,0-0.3544921875,0.171875q-0.0751953125,0.0537109375-0.23095703125,0.16650390625t-0.23095703125,0.16650390625q-0.107421875,0.0751953125-0.31689453125,0.22021484375t-0.31689453125,0.22021484375q-0.0322265625,0.021484375-0.150390625,0.107421875t-0.2255859375,0.16650390625t-0.12890625,0.08056640625z M23.240234375,32.6435546875l-0.021484375,0l0.021484375,0q0.0966796875,0.021484375,0.2685546875-0.08056640625t0.40283203125-0.27392578125t0.25244140625-0.193359375q0.4296875-0.2900390625,0.837890625-0.580078125q-0.3115234375,0.1826171875-0.966796875,0.55859375t-0.9775390625,0.5693359375l0.1826171875,0z M20.8876953125,31.9130859375q0.236328125-0.1396484375,0.6875-0.40283203125t0.6767578125-0.39208984375q0.107421875-0.064453125,0.32763671875-0.1826171875t0.32763671875-0.1826171875q0.0859375-0.0859375,0.0859375-0.5263671875l0-0.0751953125q-0.12890625,0.0859375-0.54248046875,0.365234375t-0.61767578125,0.43505859375t-0.48876953125,0.42431640625t-0.45654296875,0.537109375z M19.1044921875,30.61328125l0.107421875-0.064453125q-0.107421875,0.04296875-0.107421875,0.064453125q0.8701171875-0.4619140625,1.4501953125-0.880859375q0.4404296875-0.2685546875,0.6767578125-0.4296875q0.021484375-0.0107421875,0.0966796875-0.03759765625t0.11279296875-0.0537109375t0.03759765625-0.06982421875q0-0.0107421875-0.0107421875-0.021484375t-0.0107421875-0.021484375q-0.107421875-0.1826171875-0.17724609375-0.623046875t-0.17724609375-0.6337890625q-0.98828125,1.03125-1.890625,1.9873046875q0.451171875-0.2255859375,1.4716796875-0.923828125q0.04296875-0.04296875,0.24169921875-0.17724609375t0.28466796875-0.13427734375q0.04296875,0,0.04296875,0.064453125l0,0.064453125q-0.04296875,0.171875-0.623046875,0.59619140625t-1.09033203125,0.8056640625t-0.43505859375,0.48876953125z M18.1591796875,29.2490234375q1.71875-0.9990234375,1.84765625-1.07421875q0.1611328125-0.0859375,0.46728515625-0.26318359375t0.45654296875-0.26318359375q0.064453125-0.0322265625,0.064453125-0.12890625q0-0.0751953125-0.06982421875-0.24169921875t-0.08056640625-0.22021484375q-0.1396484375,0.0966796875-0.7197265625,0.49951171875t-0.8916015625,0.63916015625q-0.0966796875,0.0751953125-0.408203125,0.32763671875t-0.47265625,0.40283203125q-0.0107421875,0.0107421875-0.0966796875,0.06982421875t-0.11279296875,0.09130859375t-0.02685546875,0.0751953125z M17.998046875,28.8837890625q0.0107421875,0.04296875,0.16650390625-0.0859375t0.25244140625-0.2255859375q0.38671875-0.3115234375,0.666015625-0.5048828125q-0.8916015625,0.5908203125-1.1064453125,0.5908203125q-0.04296875,0-0.064453125-0.021484375q0.0107421875,0.021484375,0.0859375,0.2470703125z M17.4716796875,27.8203125l0.2255859375-0.171875l-0.2255859375,0.171875q1.955078125-1.58984375,2.685546875-2.2666015625q-0.2900390625,0.1826171875-0.90234375,0.537109375t-0.90234375,0.5263671875q-0.1611328125,0.0859375-0.4619140625,0.26318359375t-0.4619140625,0.26318359375q-0.0859375,0.0322265625-0.0859375,0.171875q0,0.1826171875,0.12890625,0.5048828125z M17.2783203125,25.71484375l0-0.021484375l0,0.021484375q-0.021484375-0.0537109375,0.6552734375-0.55859375q0.1611328125-0.1396484375,0.34375-0.279296875t0.408203125-0.30615234375t0.3544921875-0.26318359375q0.2041015625-0.150390625,0.5908203125-0.4296875t0.5908203125-0.4296875q0.0322265625-0.021484375,0.2041015625-0.1181640625t0.31689453125-0.19873046875t0.16650390625-0.16650390625q-0.3759765625,0.12890625-1.2568359375,0.6767578125q-0.8271484375,0.515625-1.998046875,1.4072265625q-0.21484375,0.1396484375-0.2900390625,0.1396484375q-0.064453125,0-0.064453125-0.1181640625l0-0.04296875q0.04296875-0.279296875,0.5478515625-0.6767578125q0.6337890625-0.55859375,1.9765625-1.525390625q-0.9560546875,0.55859375-2.5244140625,1.546875q-0.107421875,0.0537109375-0.107421875,0.30078125q0,0.1396484375,0.0537109375,0.451171875t0.0537109375,0.451171875q0,0.0966796875-0.021484375,0.1396484375z M17.869140625,22.0625q0,0.0107421875,0.03759765625,0t0.06982421875-0.021484375l0.04296875-0.021484375q-0.04296875,0-0.150390625,0.04296875q-0.150390625,0.0966796875-0.171875,0.2578125q0.322265625-0.12890625,0.68212890625-0.3115234375t0.5908203125-0.3115234375t0.67138671875-0.38671875t0.6015625-0.3544921875q2.083984375-1.2353515625,3.416015625-2.083984375q-0.451171875,0.2470703125-4.1572265625,2.3740234375q-0.1181640625,0.064453125-0.38671875,0.22021484375t-0.42431640625,0.24169921875t-0.38671875,0.18798828125t-0.43505859375,0.16650390625z M30.2978515625,19.26953125q-0.279296875,0.1611328125-0.966796875,0.55322265625t-1.052734375,0.60693359375l0,0.021484375q0,0.064453125,0.31689453125,0.51025390625t0.31689453125,0.45654296875q0.12890625-0.1396484375,0.2900390625-0.28466796875t0.279296875-0.25244140625t0.31689453125-0.2685546875t0.29541015625-0.236328125t0.322265625-0.2578125t0.30078125-0.236328125q-0.451171875,0.2470703125-1.3427734375,0.880859375q-0.0322265625,0.021484375-0.14501953125,0.11279296875t-0.21484375,0.150390625t-0.16650390625,0.04833984375q-0.0859375-0.0322265625-0.0859375-0.0966796875q0-0.0859375,0.11279296875-0.2470703125t0.25244140625-0.3115234375t0.1396484375-0.1611328125q0.322265625-0.322265625,1.03125-0.98828125z M31.490234375,20.21484375l-0.107421875,0.064453125q0-0.0107421875,0.107421875-0.064453125q-0.966796875,0.5048828125-2.4169921875,1.5361328125q0.0537109375,0.107421875,0.10205078125,0.24169921875t0.107421875,0.30615234375t0.09130859375,0.2685546875q0.04296875-0.0322265625,0.12353515625-0.09130859375t0.12353515625-0.09130859375q-0.1611328125-0.0322265625-0.1611328125-0.150390625q0-0.2255859375,0.5048828125-0.6337890625q0.2255859375-0.193359375,0.7841796875-0.623046875t0.8486328125-0.6767578125q-0.04296875-0.021484375-0.107421875-0.0859375z M29.642578125,23.6845703125l0-0.04296875q0-0.0859375,0.15576171875-0.279296875t0.3330078125-0.35986328125t0.3759765625-0.34912109375t0.20947265625-0.193359375q0.794921875-0.794921875,1.1708984375-1.1923828125q-0.1826171875,0.0859375-0.52099609375,0.34375t-0.38134765625,0.2900390625q-0.6123046875,0.38671875-1.4287109375,0.837890625q-0.0751953125,0.0751953125-0.0751953125,0.1826171875t0.04833984375,0.322265625t0.04833984375,0.2900390625q0.064453125,0.1611328125,0.064453125,0.4404296875q1.1064453125-0.6015625,1.6650390625-0.966796875q0.04296875-0.021484375,0.19873046875-0.1181640625t0.22021484375-0.1396484375l0.193359375-0.12890625t0.20947265625-0.150390625t0.17724609375-0.150390625t0.171875-0.171875q-0.236328125,0.1396484375-0.708984375,0.41357421875t-0.6982421875,0.40283203125q-0.021484375,0.0107421875-0.18798828125,0.1181640625t-0.34912109375,0.22021484375t-0.3759765625,0.2255859375t-0.33837890625,0.15576171875t-0.17724609375,0z M32.7685546875,22.384765625l-0.1396484375,0.0966796875q0.0107421875,0.021484375,0.1396484375-0.0966796875q-0.0859375,0.0537109375-0.6875,0.43505859375t-0.82177734375,0.52099609375t-0.63916015625,0.43505859375t-0.7412109375,0.55322265625q2.126953125-1.24609375,2.2236328125-1.2998046875q0.0537109375-0.0322265625,0.19873046875-0.12353515625t0.2578125-0.150390625t0.20947265625-0.08056640625q0.04296875-0.0107421875,0.0751953125,0.03759765625t0.0322265625,0.11279296875l0,0.04296875q-0.021484375,0.107421875-0.11279296875,0.2255859375t-0.17724609375,0.18798828125t-0.236328125,0.17724609375t-0.1826171875,0.1396484375q-0.794921875,0.5908203125-2.2236328125,1.5146484375q0.859375-0.47265625,2.0947265625-1.310546875q0.0107421875-0.0107421875,0.6767578125-0.47265625q0.021484375-0.021484375,0.0751953125-0.021484375q0.107421875,0,0.107421875,0.1611328125l0,0.021484375q-0.04296875,0.107421875-0.1611328125,0.21484375t-0.30078125,0.2255859375t-0.2255859375,0.150390625q0.494140625-0.3115234375,0.7734375-0.3115234375q0.0859375,0,0.150390625,0.0322265625q-0.0107421875-0.0322265625-0.09130859375-0.42431640625t-0.15576171875-0.70361328125t-0.1181640625-0.2900390625z M33.1552734375,24.146484375q-0.0107421875,0-0.0859375,0.06982421875t-0.0859375,0.06982421875q0.107421875,0.0322265625,0.107421875,0.150390625q0,0.0966796875-0.0751953125,0.23095703125t-0.1826171875,0.26318359375t-0.2470703125,0.2685546875t-0.2470703125,0.24169921875t-0.19873046875,0.1826171875t-0.10205078125,0.09130859375q0.0537109375-0.0322265625,0.2685546875-0.15576171875t0.3115234375-0.17724609375t0.2685546875-0.12890625t0.322265625-0.1181640625q-0.0537109375-0.21484375-0.0537109375-0.30078125q0-0.0322265625,0.0107421875-0.107421875t0.0107421875-0.0966796875q-0.021484375-0.107421875-0.021484375-0.34375l0-0.1396484375z M32.62890625,28.2607421875l-0.21484375,0.107421875q0.064453125-0.021484375,0.21484375-0.107421875q-0.107421875,0-0.279296875,0.0859375q-0.0966796875,0.0322265625-0.580078125,0.2470703125q-0.537109375,0.279296875-1.3642578125,0.859375q0.3759765625-0.2041015625,1.11181640625-0.6015625t1.11181640625-0.5908203125z M28.5361328125,30.8388671875l-0.0859375,0.04296875q0.021484375,0,0.0859375-0.04296875q-0.3115234375,0.1611328125-0.4619140625,0.279296875q0.0751953125-0.04296875,0.23095703125-0.1396484375t0.23095703125-0.1396484375z M26.95703125,31.6767578125l-0.2900390625,0.171875q0.0322265625,0,0.2900390625-0.171875q-0.8486328125,0.5048828125-1.1923828125,0.7841796875q0.6123046875-0.365234375,1.1923828125-0.7841796875z M26.076171875,30.9033203125l0.021484375,0l-0.021484375,0q0.1611328125-0.107421875,0.2685546875-0.107421875q-0.064453125-0.1396484375-0.150390625-0.26318359375t-0.20947265625-0.279296875t-0.17724609375-0.23095703125q-0.064453125-0.064453125-0.24169921875-0.22021484375t-0.24169921875-0.22021484375q-0.04296875-0.021484375-0.171875,0.0537109375t-0.171875,0.0751953125q-0.1181640625,0-0.1181640625-0.193359375q-0.0859375,0.04296875-0.12890625,0.04296875q-0.0322265625,0-0.08056640625-0.0107421875t-0.06982421875-0.0107421875q-0.0537109375,0-0.1396484375,0.04296875q-0.12890625,0.12890625-0.279296875,0.12890625q-0.1181640625,0-0.1611328125-0.04296875t-0.107421875-0.04296875q-0.0751953125,0-0.150390625,0.1826171875q-0.021484375,0.04296875-0.08056640625,0.12353515625t-0.06982421875,0.13427734375q-0.0107421875,0.04296875-0.0537109375,0.1181640625t-0.064453125,0.150390625t-0.021484375,0.150390625l0,0.04296875q0.021484375,0.021484375,0.04296875,0.021484375t0.09130859375-0.04833984375t0.11279296875-0.03759765625q0.0859375,0.0322265625,0.0859375,0.107421875q0,0.04296875-0.021484375,0.064453125q0.064453125,0.0322265625,0.107421875,0.0751953125q0.12890625,0.064453125,0.29541015625,0.0966796875t0.28466796875,0.03759765625t0.3115234375,0.0107421875t0.279296875,0.00537109375l0.064453125,0q0.04296875,0,0.107421875,0.0107421875t0.107421875,0.0107421875q0.0966796875,0,0.1611328125-0.04296875q0.021484375-0.021484375,0.12890625-0.021484375q0.1181640625,0,0.4619140625,0.0859375z M26.3662109375,27.8203125l-0.1826171875,0.1396484375q0,0.0107421875,0.04833984375-0.021484375t0.0966796875-0.06982421875t0.03759765625-0.04833984375q-0.494140625,0.3544921875-1.1923828125,0.73046875q-0.193359375,0.107421875-0.966796875,0.5263671875q-0.04296875,0.021484375-0.0966796875,0.04296875t-0.0751953125,0.0322265625t-0.03759765625,0.0322265625t-0.01611328125,0.064453125l0,0.0537109375q0,0.021484375,0.0537109375,0.021484375q0.04296875,0,0.236328125-0.0966796875q0.0107421875-0.0107421875,0.150390625-0.16650390625t0.2685546875-0.15576171875q0.0322265625,0.0107421875,0.08056640625-0.02685546875t0.107421875-0.09130859375t0.08056640625-0.064453125q0.5478515625-0.3544921875,1.5361328125-0.81640625q-0.064453125-0.064453125-0.12890625-0.0859375z M27.3115234375,28.5078125q-0.0859375-0.04296875-0.236328125,0.12353515625t-0.2041015625,0.27392578125q-0.150390625,0.193359375-0.3544921875,0.5693359375q0.1181640625-0.0537109375,0.236328125-0.1396484375t0.26318359375-0.21484375t0.19873046875-0.171875q0.0859375-0.0859375,0.2041015625-0.0859375q0.064453125,0,0.064453125,0.0859375q0.021484375,0.171875-0.02685546875,0.3759765625t-0.15576171875,0.48876953125t-0.12890625,0.35986328125q0.1396484375-0.064453125,1.1064453125-0.5908203125q-0.0537109375-0.04296875-0.12353515625-0.1396484375t-0.14501953125-0.22021484375t-0.107421875-0.16650390625q-0.0751953125-0.107421875-0.29541015625-0.27392578125t-0.29541015625-0.27392578125z M29.578125,26.1982421875q1.67578125-1.0419921875,2.126953125-1.2998046875q0.0751953125-0.04296875,0.26318359375-0.15576171875t0.2900390625-0.17724609375t0.25244140625-0.16650390625t0.27392578125-0.2041015625t0.22021484375-0.22021484375q-0.150390625,0.0107421875-0.34375,0.0966796875t-0.32763671875,0.1611328125t-0.34912109375,0.21484375t-0.279296875,0.1826171875q-1.1064453125,0.708984375-1.4287109375,0.9453125q-0.021484375,0.0107421875-0.236328125,0.14501953125t-0.3330078125,0.25244140625t-0.12890625,0.2255859375z M29.728515625,25.5322265625l0.021484375-0.021484375q-0.021484375,0-0.021484375,0.021484375q0.107421875-0.107421875,0.171875-0.150390625q-0.150390625,0.0751953125-0.171875,0.150390625z M29.75,24.984375l0.21484375-0.12890625l-0.21484375,0.12890625q0.1611328125-0.0966796875,0.68212890625-0.42431640625t0.76806640625-0.494140625t0.6337890625-0.45654296875t0.666015625-0.55859375q-0.47265625,0.2578125-1.611328125,0.923828125q-0.1826171875,0.0966796875-0.52099609375,0.30078125t-0.44580078125,0.2685546875q-0.193359375,0.107421875-0.193359375,0.2470703125q0,0.107421875,0.021484375,0.193359375z M29.53515625,27.3154296875q-0.0107421875-0.0107421875,0.04296875-0.04833984375t0.13427734375-0.09130859375t0.15576171875-0.10205078125l0.150390625-0.0966796875t0.0859375-0.05908203125q0.3759765625-0.2578125,0.7412109375-0.5478515625q0.6767578125-0.47265625,1.2783203125-0.98828125q0.021484375-0.021484375,0.12890625-0.11279296875t0.1611328125-0.13427734375t0.14501953125-0.13427734375t0.14501953125-0.1611328125t0.10205078125-0.1611328125t0.06982421875-0.17724609375q-0.3330078125,0.12890625-0.6767578125,0.322265625t-0.794921875,0.49951171875t-0.623046875,0.41357421875q-0.107421875,0.0537109375-0.2255859375,0.12890625t-0.26318359375,0.16650390625t-0.23095703125,0.14501953125q-0.0322265625,0.021484375-0.13427734375,0.06982421875t-0.1611328125,0.08056640625t-0.1181640625,0.0966796875t-0.06982421875,0.12890625l0,0.30078125q0,0.3544921875-0.04296875,0.4619140625z M29.5029296875,27.6484375q0.708984375-0.4189453125,0.794921875-0.4833984375q0.1826171875-0.107421875,0.55322265625-0.34375t0.55322265625-0.34375q0.666015625-0.38671875,1.1171875-0.6767578125q0.0107421875,0,0.2041015625-0.107421875t0.3330078125-0.19873046875t0.150390625-0.13427734375q-0.580078125,0.171875-1.76171875,0.98828125q-0.171875,0.107421875-0.5263671875,0.34375t-0.537109375,0.34375q-0.3115234375,0.2255859375-0.5048828125,0.34375q-0.0107421875,0.0107421875-0.11279296875,0.064453125t-0.17724609375,0.107421875t-0.0859375,0.0966796875z M28.4501953125,28.8837890625l0-0.0751953125l-0.064453125,0.0751953125l0.064453125,0z M26.6884765625,28.1748046875l0-0.021484375l0,0.021484375q0.0107421875-0.0107421875,0.1181640625-0.064453125q-0.021484375-0.021484375-0.0751953125-0.021484375z M25.345703125,28.9912109375q0.0107421875,0,0.04833984375,0.0107421875t0.04833984375,0.0107421875q0.0537109375,0,0.0966796875-0.0322265625t0.09130859375-0.11279296875t0.06982421875-0.10205078125q-0.2900390625,0.171875-0.3544921875,0.2255859375z M26.806640625,30.65625q0.107421875-0.0751953125,0.4619140625-0.279296875q-0.12890625,0.04296875-0.2041015625,0.04296875q-0.12890625,0-0.12890625-0.12890625q0-0.0966796875,0.021484375-0.1396484375q0.2470703125-0.9130859375,0.2578125-0.9453125q-0.0107421875,0.0107421875-0.10205078125,0.09130859375t-0.12890625,0.11279296875t-0.12353515625,0.0966796875t-0.14501953125,0.0966796875t-0.1396484375,0.05908203125t-0.14501953125,0.02685546875q-0.1826171875,0-0.1826171875-0.12890625q0-0.0751953125,0.06982421875-0.2041015625t0.17724609375-0.2900390625l0.107421875-0.1611328125q-0.47265625,0.2578125-0.794921875,0.4189453125q0.2900390625,0.150390625,0.64453125,0.6767578125q0.0966796875,0.0859375,0.22021484375,0.30615234375t0.13427734375,0.34912109375z M32.9619140625,27.0146484375q-0.966796875,0.6123046875-2.90576171875,1.83154296875t-2.90576171875,1.84228515625q1.1494140625-0.5478515625,3.5234375-2.0732421875q0.64453125-0.408203125,1.955078125-1.2783203125q0.2685546875-0.1611328125,0.3115234375-0.193359375q0.0537109375-0.04296875,0.0859375-0.09130859375t0.03759765625-0.0751953125t0.01611328125-0.1181640625t0.0107421875-0.11279296875q-0.107421875,0.0751953125-0.107421875,0.107421875l0,0.021484375l0.021484375,0.04296875q0,0.0537109375-0.04296875,0.0966796875z M33.1123046875,26.4775390625l0.021484375-0.04296875l-2.19140625,1.3857421875q-1.009765625,0.6337890625-1.4072265625,0.90234375q-0.537109375,0.322265625-0.64453125,0.4833984375q0.8271484375-0.3759765625,2.6640625-1.6220703125q1.0849609375-0.7734375,1.138671875-0.81640625q0.0107421875-0.0107421875,0.17724609375-0.150390625t0.24169921875-0.1396484375z M33.208984375,25.650390625l0,0.021484375l0-0.021484375q0,0.0107421875-0.22021484375,0.1396484375t-0.48876953125,0.28466796875t-0.2900390625,0.16650390625q-0.21484375,0.1396484375-0.62841796875,0.38671875t-0.61767578125,0.38671875q-0.8056640625,0.4619140625-1.3427734375,0.8486328125q-0.0107421875,0.0107421875-0.05908203125,0.04833984375t-0.0966796875,0.06982421875t-0.04833984375,0.04296875q-0.0107421875,0.021484375-0.0322265625,0.1181640625t-0.0751953125,0.1396484375q0.0107421875,0.0859375-0.0537109375,0.19873046875t-0.0751953125,0.15576171875q0.515625-0.322265625,1.45556640625-0.99365234375t1.38037109375-0.96142578125q0.6767578125-0.451171875,0.923828125-0.5478515625q0.2255859375-0.0751953125,0.236328125-0.0751953125q0.0322265625-0.0966796875,0.0322265625-0.21484375l0-0.193359375z M28.138671875,20.236328125q0.2041015625-0.1826171875,0.9560546875-0.837890625q-0.1826171875,0.107421875-0.54248046875,0.32763671875t-0.54248046875,0.32763671875q0.0107421875,0.0107421875,0.064453125,0.09130859375t0.064453125,0.09130859375z M27.5478515625,20.322265625l-0.04296875,0q-0.0322265625,0-0.171875,0.064453125t-0.2041015625,0.064453125q-0.021484375,0-0.107421875-0.04296875q-0.04296875-0.021484375-0.04296875-0.0859375q0-0.0537109375,0.21484375-0.2685546875q-0.0859375-0.021484375-0.2685546875-0.1181640625t-0.279296875-0.0966796875q-0.0859375,0-0.21484375,0.064453125q-0.0859375,0.04296875-0.1396484375,0.04296875q-0.0859375,0-0.107421875-0.107421875q0-0.0537109375,0.021484375-0.0966796875l0.021484375-0.0322265625q0-0.021484375-0.0859375-0.0751953125q-0.021484375,0-0.279296875-0.064453125q-0.0107421875,0-0.0751953125,0.021484375t-0.0859375,0.021484375q-0.04296875,0-0.11279296875-0.021484375t-0.10205078125-0.021484375q-0.0537109375,0-0.0966796875,0.021484375q-0.0107421875,0-0.05908203125,0.0107421875t-0.06982421875,0.0107421875t-0.05908203125-0.0107421875t-0.04833984375-0.0107421875q-0.0537109375,0.021484375-0.11279296875,0.02685546875t-0.13427734375,0.03759765625q-0.107421875,0.0537109375-0.150390625,0.0537109375l-0.107421875-0.0537109375q-0.1611328125,0.1611328125-0.3330078125,0.1611328125q-0.04296875,0-0.12890625-0.04296875l-0.0859375-0.04296875q-0.021484375,0-0.1611328125,0.107421875q-0.0537109375,0.0537109375-0.1826171875,0.1396484375t-0.1826171875,0.1396484375q-0.150390625,0.2255859375-0.3330078125,0.3759765625q-0.4189453125,0.4189453125-0.751953125,0.4189453125q-0.1611328125-0.021484375-0.2041015625,0.021484375t-0.064453125,0.15576171875t-0.107421875,0.19873046875q-0.021484375,0.0966796875-0.1181640625,0.279296875t-0.1181640625,0.2470703125q-0.107421875,0.3330078125-0.2685546875,0.4619140625l0,0.04296875q0,0.2255859375-0.0859375,0.3974609375q-0.021484375,0.04296875-0.04833984375,0.20947265625t-0.05908203125,0.23095703125q0,0.1826171875-0.0859375,0.4833984375l0,0.04296875q0,0.0322265625-0.021484375,0.08056640625t-0.021484375,0.08056640625q0.021484375,0.021484375,0.021484375,0.12890625q0,0.0859375-0.021484375,0.12890625q-0.0322265625,0.193359375-0.0322265625,0.3759765625l0,0.4619140625q0,0.3330078125-0.021484375,0.4833984375q0.021484375,0.04296875,0.021484375,0.12890625l0,0.1396484375q0,0.0966796875,0.0537109375,0.150390625q0.021484375,0.021484375,0.021484375,0.064453125q0,0.0322265625-0.021484375,0.107421875t-0.021484375,0.0966796875q0.021484375,0.064453125,0.021484375,0.21484375q0,0.0751953125-0.0107421875,0.2255859375t-0.0107421875,0.21484375q0.0537109375,0.21484375,0.171875,0.58544921875t0.150390625,0.48876953125q0.04296875,0.107421875,0.0966796875,0.46728515625t0.150390625,0.52099609375q0.064453125,0.0966796875,0.107421875,0.0966796875t0.04296875-0.2900390625q0.021484375-0.3115234375,0.5908203125-0.6552734375q0-0.0107421875-0.0107421875-0.04833984375t-0.0107421875-0.04833984375q0-0.0966796875,0.16650390625-0.2255859375t0.18798828125-0.1611328125q0.2470703125-0.3330078125,0.4833984375-0.4619140625q0.193359375-0.0966796875,0.2900390625-0.0966796875l0.064453125,0q0.1611328125,0.04296875,0.21484375,0.1181640625l0.0966796875,0.064453125l0.0107421875-0.0107421875q0.0107421875-0.0107421875,0.0537109375-0.0107421875l0.064453125,0q0.1611328125,0,0.3974609375-0.1181640625q0.0966796875-0.064453125,0.150390625-0.064453125l0.171875,0.04296875q0.064453125,0.021484375,0.2041015625,0.021484375q0.0537109375,0,0.17724609375-0.0107421875t0.17724609375-0.0107421875q0.0751953125,0,0.236328125,0.0537109375q0.0859375,0.0322265625,0.24169921875,0.06982421875t0.27392578125,0.08056640625t0.21484375,0.107421875q0.021484375,0.021484375,0.064453125,0.021484375q0.021484375,0,0.06982421875-0.04296875t0.12353515625-0.04296875l0.0751953125-0.021484375q0.064453125,0,0.064453125,0.107421875q0,0.1396484375-0.064453125,0.2041015625q0.2470703125,0.12890625,0.365234375,0.279296875q0.0107421875,0,0.12890625,0.08056640625t0.1826171875,0.08056640625q0.0107421875,0,0.021484375-0.01611328125t0.021484375-0.01611328125q0.21484375-0.107421875,0.2900390625-0.107421875l0.021484375,0q0.107421875,0.0322265625,0.107421875,0.107421875t-0.0751953125,0.171875t-0.1396484375,0.1396484375q0.4404296875,0.34375,0.5478515625,0.5048828125q0.021484375-0.0322265625,0.29541015625-0.27392578125t0.27392578125-0.33837890625l-0.04833984375-0.0966796875t-0.03759765625-0.107421875q0-0.064453125,0.04296875-0.0859375q0.150390625-0.107421875,0.171875-0.12890625q0-0.021484375,0.064453125-0.21484375l0-0.2900390625q0.021484375-0.04296875,0.021484375-0.150390625l0-0.1826171875l0-0.0859375q-0.064453125,0.064453125-0.193359375,0.064453125q-0.064453125,0-0.064453125-0.0859375l0-0.04296875q0.021484375-0.0537109375,0.150390625-0.107421875t0.1396484375-0.0966796875q0-0.04296875-0.01611328125-0.14501953125t-0.01611328125-0.15576171875q0-0.2900390625,0.0966796875-0.4189453125q0-0.0751953125-0.01611328125-0.09130859375t-0.0537109375-0.02685546875t-0.06982421875-0.064453125l0-0.04296875q0-0.0537109375,0.0751953125-0.12890625q0.1396484375-0.0751953125,0.171875-0.193359375q0.021484375-0.04296875,0.021484375-0.1181640625q0-0.04296875-0.0107421875-0.12890625t-0.0107421875-0.12890625l0-0.064453125q-0.0859375-0.2255859375-0.0859375-0.6875q-0.064453125-0.2255859375-0.064453125-0.5478515625q-0.0537109375-0.1611328125-0.0537109375-0.3115234375q-0.021484375-0.04296875-0.021484375-0.193359375q-0.0107421875-0.021484375-0.0537109375-0.02685546875t-0.0537109375-0.03759765625l-0.021484375-0.04296875q0-0.0322265625,0.021484375-0.08056640625t0.021484375-0.08056640625l0-0.021484375q-0.04296875-0.0859375-0.04296875-0.12890625q-0.2470703125-0.5478515625-0.279296875-0.73046875q-0.193359375-0.279296875-0.3330078125-0.5478515625q-0.1181640625-0.12890625-0.32763671875-0.5048828125t-0.40283203125-0.5263671875z M23.43359375,27.4228515625l0.064453125-0.04296875q-0.021484375,0-0.064453125,0.04296875q0.021484375,0.0107421875,0.0751953125-0.021484375t0.1181640625-0.0751953125t0.0751953125-0.0537109375q-0.1181640625,0-0.2685546875,0.150390625z M20.748046875,24.85546875q0-0.04296875-0.021484375-0.04296875l-0.107421875,0.107421875l-0.2578125,0.193359375q-0.30078125,0.2255859375-0.55859375,0.3974609375l0.150390625-0.0966796875q0.1396484375-0.0859375,0.2470703125-0.150390625t0.2470703125-0.12890625t0.21484375-0.064453125q0.04296875,0,0.064453125,0.021484375q0-0.171875,0.021484375-0.236328125z M17.3212890625,26.4560546875l0.12890625-0.064453125l-0.12890625,0.064453125q0.8271484375-0.365234375,2.5673828125-1.5791015625q0.1181640625-0.0859375,0.3759765625-0.26318359375t0.3759765625-0.26318359375q0.0751953125-0.064453125,0.10205078125-0.09130859375t0.0322265625-0.107421875t0.01611328125-0.13427734375q-0.021484375-0.04296875-0.021484375-0.193359375q0-0.322265625,0.0966796875-0.55859375q-1.095703125,0.73046875-2.513671875,1.826171875q-0.6337890625,0.494140625-0.90234375,0.751953125q-0.1181640625,0.12890625-0.171875,0.2685546875q0.04296875,0.107421875,0.04296875,0.34375z M17.2353515625,24.146484375q0.171875-0.0966796875,0.5048828125-0.30615234375t0.5048828125-0.30615234375q-0.5263671875,0.2578125-0.5693359375,0.2900390625q-0.4404296875,0.2900390625-0.4404296875,0.322265625z M17.4287109375,23.244140625l0.0859375-0.064453125l-0.0859375,0.064453125q0.537109375-0.38671875,1.15478515625-0.81640625t1.36962890625-0.9453125t1.1708984375-0.8056640625q-2.0732421875,1.2353515625-2.814453125,1.6005859375q-0.0322265625,0.0107421875-0.25244140625,0.1181640625t-0.33837890625,0.150390625q-0.0859375,0.0322265625-0.18798828125,0.28466796875t-0.10205078125,0.39208984375l0,0.021484375z M19.3623046875,22.36328125l0.4404296875-0.2578125q-0.107421875,0.064453125-0.4404296875,0.2578125l-0.021484375,0.021484375q0.236328125-0.1396484375,0.90771484375-0.5263671875t1.03662109375-0.6123046875q-0.6982421875,0.322265625-1.9228515625,1.1171875z M20.2001953125,22.3203125l-0.021484375,0.021484375l0.1826171875-0.12890625q-0.0537109375,0.021484375-0.1611328125,0.107421875q-0.064453125,0.04296875-0.19873046875,0.13427734375t-0.19873046875,0.13427734375q0.751953125-0.47265625,1.2353515625-0.666015625q0.0966796875-0.064453125,0.171875-0.064453125q0.0322265625,0,0.064453125-0.06982421875t0.064453125-0.15576171875t0.0322265625-0.0966796875q-0.794921875,0.537109375-1.1708984375,0.7841796875z M21.1025390625,22.234375q0,0.021484375-0.837890625,0.5263671875q-0.81640625,0.580078125-1.095703125,0.794921875q-0.98828125,0.751953125-1.3427734375,1.095703125q1.50390625-1.0849609375,2.2236328125-1.4931640625q0.6015625-0.3544921875,0.923828125-0.4189453125q0.0322265625-0.0859375,0.0751953125-0.27392578125t0.0537109375-0.23095703125z M27.5693359375,19.7099609375q0.3974609375-0.3974609375,1.1923828125-1.1494140625q-0.21484375,0.12890625-0.751953125,0.4296875t-0.81640625,0.47265625q0.2578125,0.12890625,0.3759765625,0.2470703125z M26.6455078125,19.1943359375l0.064453125-0.064453125l-0.064453125,0.064453125q0.107421875-0.107421875,0.64453125-0.5908203125q-0.859375,0.365234375-1.0634765625,0.5048828125q0.2900390625,0.1181640625,0.3330078125,0.1181640625q0.0537109375,0,0.0859375-0.0322265625z M26.9140625,18.1845703125l-0.2041015625,0.1611328125q0.04296875,0,0.2041015625-0.1611328125q-0.751953125,0.4619140625-1.2998046875,0.837890625q0.150390625,0,0.193359375,0.021484375q0.2041015625-0.0751953125,0.4189453125-0.2578125q0.150390625-0.1181640625,0.6875-0.6015625z M25.130859375,19.0224609375l0.107421875-0.0859375l-0.107421875,0.0859375q0.322265625-0.2041015625,0.751953125-0.5048828125q-0.47265625,0.30078125-0.794921875,0.4833984375z M22.251953125,20.193359375q-0.021484375,0.0751953125-0.6015625,0.365234375q-0.3544921875,0.236328125-0.5693359375,0.3974609375q-1.0634765625,0.7412109375-1.2138671875,0.837890625q0.021484375-0.0107421875,0.2578125-0.16650390625t0.30078125-0.193359375t0.27392578125-0.15576171875t0.322265625-0.16650390625t0.28466796875-0.1181640625t0.322265625-0.10205078125q0.0751953125-0.021484375,0.1826171875-0.18798828125t0.193359375-0.20947265625l0-0.021484375q0-0.0859375,0.11279296875-0.1611328125t0.13427734375-0.1181640625z M19.2763671875,25.5322265625l-0.171875,0.1396484375q0.322265625-0.2255859375,0.322265625-0.2470703125q-0.04296875,0.04296875-0.150390625,0.107421875q-0.451171875,0.3330078125-1.203125,0.7734375q-0.4833984375,0.2685546875-0.580078125,0.3115234375q-0.193359375,0.064453125-0.193359375,0.171875q0,0.021484375,0.0107421875,0.0537109375t0.0107421875,0.0537109375q0.1181640625-0.0859375,1.482421875-0.95068359375t1.9658203125-1.42333984375q-0.3330078125,0.2470703125-1.4931640625,1.009765625z M19.501953125,26.4345703125l-0.1826171875,0.1611328125q0.2900390625-0.2255859375,0.2900390625-0.2470703125q-0.04296875,0.021484375-0.107421875,0.0859375q-0.2685546875,0.236328125-0.83251953125,0.6982421875t-0.84326171875,0.6875q1.2783203125-0.7412109375,2.2451171875-1.3427734375q0.3759765625-0.21484375,0.4404296875-0.2578125q0.12890625-0.0966796875,0.2578125-0.1611328125l0-0.150390625l0-0.064453125q-0.021484375-0.0859375-0.021484375-0.2900390625q0-0.21484375-0.021484375-0.30078125q-0.0859375,0.1611328125-0.25244140625,0.33837890625t-0.29541015625,0.2900390625t-0.365234375,0.30078125t-0.3115234375,0.25244140625z M20.76953125,26.4130859375q-0.279296875,0.236328125-0.8486328125,0.708984375t-0.859375,0.6982421875q0.236328125-0.12890625,0.64990234375-0.37060546875t0.48876953125-0.28466796875q0.064453125-0.04296875,0.20947265625-0.11279296875t0.21484375-0.11279296875t0.13427734375-0.12890625t0.064453125-0.193359375q0-0.04296875-0.0537109375-0.2041015625z M21.7470703125,29.5390625q-0.4189453125,0.4404296875-1.2998046875,1.2783203125q0.2470703125-0.1396484375,5.5-3.1689453125q-0.12890625-0.04296875-0.2470703125-0.04296875q-0.0537109375-0.021484375-0.171875-0.0322265625t-0.1826171875-0.0322265625q-0.21484375,0.107421875-0.279296875,0.107421875q-0.0107421875,0-0.0322265625-0.0107421875t-0.0322265625-0.0107421875q-0.04296875-0.021484375-0.1181640625-0.021484375q-0.021484375,0-0.08056640625,0.021484375t-0.13427734375,0.021484375l-0.150390625,0q-0.30078125,0-0.537109375,0.12890625q-0.1181640625,0.0751953125-0.42431640625,0.28466796875t-0.47802734375,0.30615234375q-0.04296875,0.0322265625-0.17724609375,0.11279296875t-0.22021484375,0.14501953125t-0.150390625,0.1396484375q0,0.1611328125-0.064453125,0.2255859375q0,0.0107421875,0.0107421875,0.03759765625t0.0107421875,0.04833984375t-0.04296875,0.107421875q-0.279296875,0.4833984375-0.4833984375,0.4833984375q-0.0859375,0-0.21484375-0.12890625z M21.45703125,30.61328125q-0.4833984375,0.2685546875-0.90234375,0.623046875q-0.150390625,0.0966796875-0.171875,0.193359375q0.0966796875,0.0107421875,0.23095703125-0.0322265625t0.23095703125-0.0966796875t0.236328125-0.1396484375t0.171875-0.107421875q0.515625-0.322265625,1.2568359375-0.8271484375q0.0107421875-0.0107421875,0.11279296875-0.0751953125t0.20947265625-0.1396484375t0.22021484375-0.1611328125t0.17724609375-0.1611328125t0.0537109375-0.107421875q-1.41796875,0.7734375-1.826171875,1.03125z M23.390625,31.580078125l-0.021484375,0.0322265625l0.0859375-0.0966796875l0,0l-0.064453125,0.064453125q-0.4296875,0.3759765625-0.5048828125,0.4404296875q1.0205078125-0.580078125,1.1708984375-0.6767578125q-0.150390625-0.0322265625-0.3544921875-0.150390625q0,0.1396484375-0.3115234375,0.38671875z M24.142578125,31.6552734375l-0.021484375,0.021484375l0.064453125-0.064453125l-0.04296875,0.04296875q-0.064453125,0.0537109375-0.18798828125,0.1611328125t-0.18798828125,0.1611328125q0.1611328125-0.0859375,0.47802734375-0.27392578125t0.46728515625-0.27392578125q-0.12890625-0.04296875-0.171875-0.04296875q-0.0537109375,0-0.107421875,0.02685546875t-0.08056640625,0.04833984375t-0.0966796875,0.09130859375t-0.11279296875,0.10205078125z M26.033203125,31.55859375l-0.04296875,0.0537109375l0.04296875-0.0537109375q-0.0751953125,0.107421875-0.23095703125,0.322265625t-0.23095703125,0.322265625q0.2041015625-0.1396484375,0.9345703125-0.58544921875t1.1064453125-0.71435546875q1.58984375-1.0634765625,2.2666015625-1.4716796875q0.6337890625-0.3974609375,1.9443359375-1.1494140625q0.623046875-0.322265625,0.8916015625-0.3759765625q0.0859375-0.0107421875,0.16650390625-0.20947265625t0.10205078125-0.33837890625q-2.427734375,1.6328125-4.3076171875,2.728515625q-0.8056640625,0.5048828125-1.4072265625,0.7734375q-0.2470703125,0.1181640625-0.4404296875,0.2900390625q-0.0107421875,0.0107421875-0.09130859375,0.08056640625t-0.12890625,0.10205078125t-0.1181640625,0.06982421875t-0.12353515625,0.02685546875q-0.236328125,0-0.3330078125,0.12890625z M29.9970703125,32.16015625q-0.9560546875,0.837890625-1.1064453125,0.98828125q0.1396484375-0.0751953125,0.5048828125-0.2900390625t0.5693359375-0.322265625q0.1611328125-0.0966796875,0.1611328125-0.1181640625l-0.04296875-0.12890625q-0.0107421875-0.0107421875-0.01611328125-0.04833984375t-0.01611328125-0.05908203125t-0.0322265625-0.021484375l-0.021484375,0z M32.37109375,21.439453125q-0.0751953125-0.1181640625-0.1181640625-0.236328125q-0.322265625,0.322265625-0.96142578125,0.97216796875t-0.95068359375,0.96142578125q0.2685546875-0.1611328125,0.81640625-0.47802734375t0.81640625-0.46728515625q0.0966796875-0.0537109375,0.29541015625-0.16650390625t0.29541015625-0.16650390625q0.0107421875-0.0107421875-0.193359375-0.4189453125z M32.0595703125,20.8056640625q-0.107421875-0.2255859375-0.171875-0.2685546875q-0.12890625-0.064453125-0.1396484375-0.064453125q-0.021484375,0-0.107421875,0.0859375q-0.1181640625,0.0751953125-0.3974609375,0.3115234375q-0.751953125,0.5693359375-1.03125,0.794921875q-0.021484375,0.0107421875-0.171875,0.12890625t-0.236328125,0.20947265625t-0.1181640625,0.18798828125q0.236328125,0.064453125,0.90234375-0.4404296875q0.408203125-0.2685546875,0.98828125-0.73046875q0.2900390625-0.193359375,0.3544921875-0.193359375t0.064453125,0.107421875l0,0.04296875q0.021484375-0.0107421875,0.064453125-0.021484375t0.064453125-0.021484375z M31.3076171875,20.0107421875q-0.021484375-0.0107421875-0.09130859375-0.09130859375t-0.10205078125-0.08056640625q-0.0107421875,0-0.021484375,0.0107421875t-0.021484375,0.0107421875q-0.0751953125,0.064453125-0.24169921875,0.19873046875t-0.24169921875,0.19873046875q-0.90234375,0.7197265625-1.2568359375,1.052734375q1.2568359375-0.8486328125,1.998046875-1.2568359375q0-0.0107421875-0.0107421875-0.021484375t-0.0107421875-0.021484375z M30.56640625,19.333984375q-0.021484375-0.0107421875-0.0966796875,0.04296875t-0.17724609375,0.150390625t-0.18798828125,0.1826171875t-0.171875,0.17724609375t-0.0966796875,0.10205078125q-0.3759765625,0.3759765625-0.5478515625,0.5693359375q1.0419921875-0.7626953125,1.5576171875-0.98828125q-0.2578125-0.193359375-0.279296875-0.236328125z M28.93359375,19.7958984375q0.21484375-0.12890625,0.6337890625-0.37060546875t0.623046875-0.35986328125q-0.150390625-0.150390625-0.2470703125-0.150390625q-0.021484375,0-0.04296875,0.021484375q-0.0859375,0.0859375-0.30078125,0.2578125q-0.107421875,0.0966796875-0.3330078125,0.30078125t-0.3330078125,0.30078125z M29.62109375,18.625q-0.0322265625-0.0107421875-0.15576171875-0.10205078125t-0.19873046875-0.09130859375q-0.064453125,0-0.107421875,0.04296875q-0.0751953125,0.0751953125-0.23095703125,0.22021484375t-0.23095703125,0.22021484375q-0.3330078125,0.3115234375-0.9453125,0.923828125q0.064453125,0.04296875,0.107421875,0.04296875q0.0322265625,0,0.150390625-0.0859375q0.1396484375-0.0751953125,0.5263671875-0.3115234375q0.5908203125-0.365234375,1.1923828125-0.7734375q-0.0859375-0.04296875-0.107421875-0.0859375z M28.71875,18.2490234375q-0.021484375-0.021484375-0.04296875-0.021484375q0.04296875,0.04296875,0.04296875,0.1181640625q0.021484375-0.0107421875,0.0859375-0.0751953125q-0.021484375-0.021484375-0.04296875-0.021484375l-0.04296875,0z M28.3857421875,18.1416015625q-0.0859375-0.04296875-0.12890625-0.04296875q-0.0859375,0-0.16650390625,0.0537109375t-0.1826171875,0.1611328125t-0.13427734375,0.1396484375q-0.150390625,0.12890625-0.4296875,0.39208984375t-0.4296875,0.40283203125q0.0966796875-0.04296875,0.322265625-0.15576171875t0.38671875-0.19873046875t0.30078125-0.1826171875q0.0537109375-0.04296875,0.18798828125-0.16650390625t0.25244140625-0.21484375t0.21484375-0.12353515625z M27.4833984375,17.787109375q-0.064453125,0.0107421875-0.12890625,0l-0.064453125-0.021484375q-0.0751953125,0-0.1181640625,0.04296875q0.0107421875,0,0.04833984375-0.0107421875t0.04833984375-0.0107421875q0.107421875,0,0.107421875,0.1396484375q0,0.0751953125-0.064453125,0.171875q0.0966796875-0.064453125,0.3974609375-0.21484375q-0.150390625-0.0966796875-0.2255859375-0.0966796875z M26.3447265625,17.6796875l0.021484375,0l-0.021484375,0q-0.0859375,0-0.16650390625-0.0322265625t-0.10205078125-0.0322265625q-0.0537109375,0-0.171875,0.0859375q-0.1396484375,0.0859375-0.408203125,0.26318359375t-0.365234375,0.24169921875q-0.38671875,0.279296875-1.783203125,1.2138671875q0.0859375,0.0107421875,0.2255859375-0.04296875t0.193359375-0.064453125q0.04296875-0.0107421875,0.09130859375-0.0859375t0.10205078125-0.0966796875q0.0859375-0.021484375,0.16650390625,0.04833984375t0.12353515625,0.06982421875t0.064453125-0.021484375q0.064453125-0.0322265625,0.18798828125-0.11279296875t0.18798828125-0.11279296875q1.181640625-0.6982421875,2.01953125-1.2568359375q-0.0537109375-0.0107421875-0.16650390625-0.03759765625t-0.19873046875-0.02685546875z M23.8310546875,17.830078125l-0.04296875,0l0.064453125,0l-0.021484375,0l-0.04296875,0q-0.0537109375,0-0.107421875-0.04296875t-0.0859375-0.04296875q-0.0537109375,0-0.0751953125,0.021484375q-0.0537109375,0.04296875-0.13427734375,0.06982421875t-0.12353515625,0.06982421875q-0.04296875,0.0322265625-0.1396484375,0.0537109375t-0.12890625,0.0537109375q-0.107421875,0.064453125-0.322265625,0.236328125q-0.236328125,0.193359375-0.73046875,0.55859375t-0.73046875,0.5478515625q-0.408203125,0.322265625-1.22998046875,0.9560546875t-1.22998046875,0.9560546875q0.9345703125-0.5478515625,3.1044921875-1.67578125q0.47265625-0.2470703125,0.97216796875-0.55322265625t1.138671875-0.72509765625t0.93994140625-0.6123046875q-0.0537109375,0-0.17724609375-0.0107421875t-0.18798828125-0.0107421875q-0.1181640625,0-0.1826171875,0.021484375l-0.0859375,0q-0.150390625,0-0.236328125-0.04296875q-0.04296875,0.021484375-0.0966796875,0.0859375t-0.107421875,0.0859375z M19.0830078125,20.1181640625q0-0.04296875,0.064453125-0.04296875q-0.021484375,0-0.064453125,0.04296875q0.3115234375-0.150390625,0.3974609375-0.193359375q0.107421875-0.064453125,0.32763671875-0.18798828125t0.32763671875-0.18798828125q0.8486328125-0.515625,1.955078125-1.24609375q-0.193359375,0.04296875-0.41357421875,0.150390625t-0.48876953125,0.27392578125t-0.3974609375,0.23095703125q-0.193359375,0.12890625-0.236328125,0.150390625q-0.0859375,0.04296875-0.171875,0.11279296875t-0.19873046875,0.16650390625t-0.17724609375,0.1396484375q-0.12890625,0.0859375-0.2255859375,0.0859375l-0.064453125,0q-0.2900390625,0.171875-0.3115234375,0.1826171875q-0.064453125,0.04296875-0.1611328125,0.1611328125t-0.1611328125,0.1611328125z M22.337890625,18.0771484375q-0.021484375,0.021484375-0.107421875,0.12890625q0.12890625-0.0859375,0.150390625-0.107421875q-0.021484375-0.021484375-0.04296875-0.021484375z M17.998046875,21.482421875q-0.04296875,0.021484375-0.04296875,0.1181640625q0.5908203125-0.4619140625,1.6865234375-1.2890625t1.375-1.0419921875q-0.171875,0.0966796875-0.52099609375,0.31689453125t-0.5693359375,0.34912109375t-0.53173828125,0.28466796875t-0.580078125,0.25244140625q-0.0322265625,0.0107421875-0.0966796875,0.021484375t-0.0966796875,0.021484375q-0.0322265625,0-0.06982421875,0.0751953125l-0.0859375,0.171875t-0.06982421875,0.12890625q-0.2041015625,0.2041015625-0.3974609375,0.5908203125z M18.5029296875,27.669921875l-0.0859375,0.064453125l0.2685546875-0.150390625q-0.0537109375,0.021484375-0.1826171875,0.0859375q-0.1396484375,0.0751953125-0.42431640625,0.24169921875t-0.42431640625,0.24169921875q0.193359375,0.193359375,0.236328125,0.3974609375q0.0107421875-0.0537109375,0.0751953125-0.1181640625t0.1826171875-0.1396484375l0.1181640625-0.0751953125q0.1181640625-0.0966796875,0.34912109375-0.29541015625t0.34912109375-0.29541015625q0.1826171875-0.1396484375,0.53173828125-0.4296875t0.53173828125-0.4296875q-0.9130859375,0.5263671875-1.525390625,0.90234375z M18.728515625,30.1298828125q0.1181640625,0.236328125,0.12890625,0.2470703125q0.021484375,0.021484375,0.064453125,0.021484375q0.0322265625,0,0.10205078125-0.064453125t0.10205078125-0.0859375q0.0537109375-0.064453125,0.3759765625-0.3330078125q-0.2900390625,0.193359375-0.537109375,0.193359375l-0.064453125,0q-0.107421875-0.0322265625-0.107421875-0.0859375q0-0.064453125,0.064453125-0.12890625q0.0859375-0.0966796875,0.27392578125-0.29541015625t0.27392578125-0.29541015625q0.1826171875-0.193359375,0.57470703125-0.5908203125t0.57470703125-0.6015625q-1.6328125,0.9560546875-2.2666015625,1.2998046875q0.0537109375,0.0859375,0.1611328125,0.2255859375t0.17724609375,0.2578125t0.10205078125,0.236328125z M19.587890625,31.0107421875l0.021484375,0l-0.021484375,0q0.0751953125,0.021484375,0.12353515625,0.064453125t0.06982421875,0.04296875q0.0537109375,0,0.1396484375-0.0859375q0.150390625-0.12890625,0.4404296875-0.4189453125l0.7626953125-0.7626953125q-0.3759765625,0.2578125-1.76171875,0.98828125q0.0322265625,0.021484375,0.11279296875,0.0859375t0.11279296875,0.0859375z M20.0927734375,31.408203125l0.064453125,0.064453125l0-0.021484375q0-0.1611328125,0.2470703125-0.3544921875q-0.064453125,0.0322265625-0.19873046875,0.11279296875t-0.19873046875,0.11279296875z M20.59765625,31.7626953125q0.021484375,0.0107421875,0.04833984375,0.021484375t0.03759765625,0.01611328125t0.021484375,0.00537109375t0.01611328125-0.0107421875t0.021484375-0.03759765625t0.04833984375-0.05908203125q0.064453125-0.107421875,0.2470703125-0.2900390625q-0.4833984375,0.2685546875-0.6767578125,0.2470703125q0.04296875,0.04296875,0.236328125,0.107421875z M21.521484375,32.24609375q0.0751953125-0.0107421875,0.18798828125-0.0859375t0.2470703125-0.18798828125t0.17724609375-0.14501953125q0.0537109375-0.04296875,0.623046875-0.4404296875q-0.0859375,0.0537109375-0.55859375,0.35986328125t-0.7197265625,0.47802734375q0.021484375,0.021484375,0.04296875,0.021484375z M22.0048828125,32.375q0.064453125,0.0107421875,0.18798828125-0.05908203125t0.22021484375-0.15576171875t0.23095703125-0.20947265625t0.15576171875-0.14501953125q0.1611328125-0.1181640625,0.5263671875-0.4404296875q-0.21484375,0.12890625-0.708984375,0.47265625t-0.7841796875,0.494140625q0.0322265625,0,0.09130859375,0.021484375t0.08056640625,0.021484375z M22.595703125,32.5361328125q0.12890625,0.0322265625,0.30078125-0.08056640625t0.39208984375-0.32763671875t0.25244140625-0.236328125q-0.2041015625,0.107421875-0.57470703125,0.32763671875t-0.49951171875,0.29541015625q0.0859375,0,0.12890625,0.021484375z M24.7763671875,32.7294921875l-0.021484375,0l0.021484375,0q0.12890625,0,0.28466796875-0.1396484375t0.25244140625-0.2900390625t0.236328125-0.38134765625t0.171875-0.28466796875q-0.6767578125,0.451171875-1.71875,1.095703125q0.064453125,0.021484375,0.2255859375,0.021484375q0.064453125,0,0.21484375-0.0107421875t0.2255859375-0.0107421875l0.107421875,0z M28.3427734375,33.10546875q0.021484375,0.021484375,0.0537109375,0.0966796875t0.0537109375,0.0966796875q0.193359375-0.2578125,0.5478515625-0.5263671875q0.0322265625-0.0322265625,0.2900390625-0.24169921875t0.45654296875-0.3974609375t0.17724609375-0.24169921875q-1.138671875,0.81640625-1.6865234375,1.052734375q0.0537109375,0.0537109375,0.107421875,0.1611328125z M29.4384765625,34.4052734375l0.021484375,0l-0.021484375,0q0.0322265625,0,0.14501953125,0.04833984375t0.14501953125,0.08056640625q0-0.150390625,0.171875-0.3759765625q0.064453125-0.107421875,0.64453125-0.9453125q-0.236328125,0.150390625-0.7197265625,0.42431640625t-0.73046875,0.41357421875q0.021484375,0.0322265625,0.34375,0.3544921875z M30.78125,34.91015625q0.064453125,0,0.171875-0.06982421875t0.22021484375-0.17724609375t0.15576171875-0.12890625q0.2255859375-0.1611328125,0.64453125-0.4833984375q0.193359375-0.12890625,0.55322265625-0.408203125t0.54248046875-0.408203125q-1.1171875,0.64453125-2.728515625,1.5146484375q0.0537109375,0.021484375,0.20947265625,0.06982421875t0.23095703125,0.09130859375z M32.0810546875,34.802734375q0.04296875-0.021484375,0.04296875-0.0537109375l-0.064453125,0.0537109375l0.021484375,0q0.064453125-0.04296875,0.19873046875-0.13427734375t0.19873046875-0.13427734375q-0.3544921875,0.193359375-0.5908203125,0.3544921875l0.04296875,0q0.0322265625,0,0.0751953125-0.03759765625t0.0751953125-0.04833984375z M33.9931640625,32.7939453125l0-0.04296875q-0.6552734375,0.5693359375-2.900390625,2.2236328125q0.0859375,0.0322265625,0.2578125-0.04833984375t0.31689453125-0.18798828125t0.3330078125-0.2578125t0.23095703125-0.171875q0.2041015625-0.1396484375,0.5908203125-0.3974609375l0.580078125-0.38671875q0.0322265625-0.021484375,0.11279296875-0.0859375t0.15576171875-0.107421875t0.12890625-0.0537109375q0.0322265625,0,0.06982421875-0.10205078125t0.0751953125-0.2255859375t0.04833984375-0.15576171875z"/><path fill="#0f172a" d="M57.032,34.016c0,0.048,0,0.096-0.024,0.168l-0.384,1.32c-0.096,0.312-0.24,0.528-0.504,0.528c-0.192,0-0.672-0.096-0.936-0.168c-1.464-0.432-2.664-1.368-3.624-1.992c-0.624-0.408-1.032-0.672-1.944-0.672c-0.36,0-0.696,0-1.032-0.024c-4.368-0.264-6.552-3.864-6.552-8.448c0-4.8,2.616-8.688,7.392-8.688c4.944,0,7.224,3.888,7.224,8.52c0,3.312-1.2,6.144-3.576,7.608c0.864,0.48,2.16,1.032,3.24,1.296c0.552,0.144,0.72,0.264,0.72,0.552z M53.336,24.632c0-3.6-1.176-5.976-3.984-5.976c-2.616,0-4.008,2.616-4.008,5.976c0,3.552,1.2,6.048,4.008,6.048c2.64,0,3.984-2.568,3.984-6.048z M70.82,32.288c0,0.504-0.144,0.672-0.624,0.672l-1.536,0c-0.312,0-0.552-0.168-0.576-0.48l-0.024-0.6c-1.104,0.888-2.424,1.368-3.816,1.368c-2.688,0-3.792-1.704-3.792-4.296l0-7.08c0-0.408,0.24-0.552,0.624-0.552l1.68,0c0.384,0,0.6,0.12,0.6,0.552l0,6.576c0,1.32,0.336,2.232,1.776,2.232c0.912,0,2.064-0.504,2.784-1.152l0-7.656c0-0.408,0.216-0.552,0.6-0.552l1.704,0c0.384,0,0.6,0.12,0.6,0.552l0,10.416z M78.488,18.272c0,0.936-0.816,1.512-1.608,1.512s-1.632-0.528-1.632-1.488s0.792-1.536,1.632-1.536c0.816,0,1.608,0.552,1.608,1.512z M78.344,32.36c0,0.432-0.192,0.6-0.6,0.6l-1.68,0c-0.432,0-0.624-0.168-0.624-0.6l0-10.488c0-0.408,0.24-0.552,0.624-0.552l1.68,0c0.384,0,0.6,0.12,0.6,0.552l0,10.488z M91.7,32.144c0,0.192-0.12,0.288-0.336,0.384c-1.152,0.528-2.208,0.72-3.48,0.72c-3.696,0-5.736-2.304-5.736-6c0-3.72,2.232-6.24,5.952-6.24c1.08,0,2.208,0.216,3.216,0.672c0.192,0.096,0.288,0.144,0.288,0.336c0,0.072-0.024,0.216-0.048,0.288l-0.312,1.272c-0.048,0.216-0.144,0.336-0.288,0.336c-0.072,0-0.168-0.048-0.264-0.096c-0.696-0.288-1.464-0.528-2.304-0.528c-2.064,0-3.24,1.464-3.24,3.816c0,2.304,1.056,3.888,3.12,3.888c1.032,0,1.68-0.192,2.52-0.528c0.072-0.024,0.168-0.072,0.24-0.072c0.144,0,0.24,0.12,0.288,0.288l0.312,1.056c0.048,0.168,0.072,0.312,0.072,0.408z M104.816,32.672c0,0.216-0.216,0.288-0.456,0.288l-2.064,0c-0.432,0-0.72-0.12-0.96-0.504l-3.072-5.04l-0.264,0.24l0,3.336l0,1.368c0,0.408-0.168,0.6-0.552,0.6l-1.8,0c-0.36,0-0.552-0.216-0.552-0.576l0-15.744c0-0.384,0.144-0.528,0.504-0.576l1.752-0.24c0.072,0,0.12-0.024,0.192-0.024c0.288,0,0.456,0.144,0.456,0.552l0,4.032l0,5.592l0.048,0l3.144-4.32c0.192-0.264,0.336-0.336,0.648-0.336l2.136,0c0.192,0,0.312,0.096,0.312,0.24c0,0.072-0.024,0.168-0.096,0.264l-3.432,4.32l3.888,6.072c0.096,0.144,0.168,0.312,0.168,0.456z M127.496,32.672c0,0.192-0.144,0.288-0.36,0.288l-2.184,0c-0.432,0-0.72-0.12-0.936-0.48l-3.456-5.64l-1.848,0l0,5.52c0,0.36-0.144,0.6-0.552,0.6l-1.968,0c-0.408,0-0.576-0.192-0.576-0.6l0-15.312c0-0.528,0.12-0.696,0.648-0.696l3.552,0c2.088,0,4.296,0.312,5.568,1.776c0.768,0.888,1.152,2.064,1.152,3.36c0,2.208-1.176,3.936-3.096,4.776l3.936,6.072c0.072,0.12,0.12,0.24,0.12,0.336z M123.392,21.536c0-2.088-1.392-2.832-3.48-2.832l-1.2,0l0,5.808l1.488,0c1.92,0,3.192-1.032,3.192-2.976z M141.188,27.104c0,0.576-0.192,0.696-0.792,0.696l-7.032,0c0.192,1.848,1.536,3.12,3.432,3.12c1.008,0,2.064-0.24,2.952-0.576c0.096-0.024,0.168-0.072,0.264-0.072c0.168,0,0.288,0.096,0.336,0.288l0.336,1.224c0.024,0.12,0.048,0.216,0.048,0.288c0,0.168-0.096,0.288-0.384,0.408c-1.176,0.528-2.784,0.768-4.032,0.768c-3.768,0-6-2.4-6-6.144c0-3.6,2.376-6.096,5.952-6.096c1.464,0,2.664,0.552,3.504,1.44c1.104,1.152,1.416,2.664,1.416,4.296l0,0.36z M138.332,25.904l0-0.264c-0.048-1.248-0.768-2.4-2.232-2.4c-1.56,0-2.496,1.248-2.688,2.664l4.92,0z M152.552,29.528c0,2.52-2.184,3.72-4.632,3.72c-1.248,0-2.616-0.36-3.696-0.84c-0.216-0.096-0.288-0.24-0.288-0.384c0-0.072,0.024-0.144,0.048-0.216l0.384-1.224c0.072-0.24,0.192-0.336,0.336-0.336c0.072,0,0.144,0,0.264,0.048c1.056,0.432,2.184,0.744,3.024,0.744c1.056,0,1.776-0.48,1.776-1.272c0-0.672-0.456-1.032-1.44-1.416l-1.896-0.72c-1.368-0.504-2.472-1.56-2.472-3.192c0-2.352,2.208-3.432,4.344-3.432c1.152,0,2.28,0.192,3.48,0.72c0.192,0.096,0.288,0.192,0.288,0.336c0,0.072-0.024,0.144-0.048,0.24l-0.408,1.296c-0.048,0.168-0.168,0.264-0.336,0.264c-0.072,0-0.168-0.024-0.24-0.048c-0.792-0.312-1.824-0.576-2.592-0.576c-1.008,0-1.512,0.552-1.512,1.104c0,0.528,0.264,0.864,1.176,1.224l2.16,0.888c1.272,0.528,2.28,1.512,2.28,3.072z M166.436,32.288c0,0.504-0.144,0.672-0.624,0.672l-1.536,0c-0.312,0-0.552-0.168-0.576-0.48l-0.024-0.6c-1.104,0.888-2.424,1.368-3.816,1.368c-2.688,0-3.792-1.704-3.792-4.296l0-7.08c0-0.408,0.24-0.552,0.624-0.552l1.68,0c0.384,0,0.6,0.12,0.6,0.552l0,6.576c0,1.32,0.336,2.232,1.776,2.232c0.912,0,2.064-0.504,2.784-1.152l0-7.656c0-0.408,0.216-0.552,0.6-0.552l1.704,0c0.384,0,0.6,0.12,0.6,0.552l0,10.416z M188.24,32.36c0,0.432-0.168,0.6-0.576,0.6l-1.68,0c-0.432,0-0.624-0.168-0.624-0.6l0-6.576c0-1.296-0.336-2.28-1.8-2.28c-0.912,0-1.968,0.48-2.712,1.08c0.048,0.216,0.096,3.432,0.096,3.768l0,4.008c0,0.432-0.168,0.6-0.576,0.6l-1.584,0c-0.432,0-0.624-0.168-0.624-0.6l0-6.576c0-1.272-0.264-2.28-1.728-2.28c-0.936,0-1.896,0.528-2.664,1.2l0,7.656c0,0.432-0.192,0.6-0.6,0.6l-1.68,0c-0.432,0-0.624-0.168-0.624-0.6l0-10.488c0-0.384,0.216-0.552,0.576-0.552l1.56,0c0.36,0,0.576,0.12,0.6,0.456l0.024,0.6c0.984-0.864,2.28-1.368,3.528-1.368c1.464,0,2.496,0.648,3.048,1.56c1.08-1.032,2.64-1.56,4.104-1.56c1.752,0,2.856,0.864,3.36,1.8c0.456,0.888,0.576,1.944,0.576,3.48l0,6.072z M202.868,27.104c0,0.576-0.192,0.696-0.792,0.696l-7.032,0c0.192,1.848,1.536,3.12,3.432,3.12c1.008,0,2.064-0.24,2.952-0.576c0.096-0.024,0.168-0.072,0.264-0.072c0.168,0,0.288,0.096,0.336,0.288l0.336,1.224c0.024,0.12,0.048,0.216,0.048,0.288c0,0.168-0.096,0.288-0.384,0.408c-1.176,0.528-2.784,0.768-4.032,0.768c-3.768,0-6-2.4-6-6.144c0-3.6,2.376-6.096,5.952-6.096c1.464,0,2.664,0.552,3.504,1.44c1.104,1.152,1.416,2.664,1.416,4.296l0,0.36z M200.012,25.904l0-0.264c-0.048-1.248-0.768-2.4-2.232-2.4c-1.56,0-2.496,1.248-2.688,2.664l4.92,0z"/></svg>
