<?xml version="1.0"?>
<svg version="1.1" xmlns="http://www.w3.org/2000/svg" width="250px" height="40px" style=""><path fill="#00bdad" d="M36.8828125,31.73046875l0-0.0234375l0,0.0234375q0,0.01171875,0.01171875,0.0234375t0.01171875,0.0234375q0,0.046875-0.08203125,0.1171875t-0.09375,0.1171875q0,0.17578125-0.0234375,0.24609375l0,0.140625q0,0.22265625-0.046875,0.41015625l0,0.1171875q0,0.26953125-0.0703125,0.41015625q0,0.0234375-0.041015625,0.076171875t-0.052734375,0.064453125q-0.01171875,0.03515625-0.0234375,0.111328125t-0.0234375,0.111328125q-0.03515625,0.0703125-0.29296875,0.45703125q0,0.1875-0.1171875,0.421875q-0.05859375,0.29296875-0.2109375,0.41015625q0,0.421875-0.43359375,0.59765625q-0.046875,0.05859375-0.15234375,0.287109375t-0.2578125,0.322265625q-0.1171875,0.08203125-0.38671875,0.181640625t-0.36328125,0.169921875q-0.3515625,0.2109375-0.421875,0.19921875q-0.1171875-0.05859375-0.12890625-0.0703125l-0.2109375,0.140625q-0.046875,0.0234375-0.146484375,0.0703125t-0.146484375,0.0703125q-0.03515625,0.01171875-0.140625,0.017578125t-0.1640625,0.029296875q-0.046875,0.0234375-0.17578125,0.0234375q-0.234375,0-0.3515625-0.1171875q-0.08203125,0-0.12890625-0.046875q-0.046875,0-0.3984375,0.1171875l-0.10546875,0q-0.234375,0-0.234375-0.1171875q0-0.10546875,0.1171875-0.1640625q-0.03515625-0.01171875-0.15234375-0.052734375t-0.17578125-0.076171875q-0.0234375-0.01171875-0.08203125-0.03515625t-0.10546875-0.041015625t-0.08203125-0.017578125q-0.03515625-0.01171875-0.2109375-0.09375q-0.26953125-0.140625-0.29296875-0.140625q-0.12890625-0.03515625-0.33984375-0.240234375t-0.328125-0.369140625q-0.08203125-0.046875-0.205078125-0.1875t-0.158203125-0.234375q-0.421875-0.421875-0.48046875-0.703125q-0.03515625-0.03515625-0.0703125-0.08203125t-0.052734375-0.064453125t-0.041015625-0.017578125q-0.046875,0-0.15234375,0.0703125q-0.12890625,0.09375-0.234375,0.09375q-0.046875,0-0.146484375-0.01171875t-0.146484375-0.01171875l-0.0703125,0l-0.0703125,0q-0.046875,0-0.1171875-0.0234375t-0.1171875-0.0234375q-0.01171875,0-0.046875,0.01171875t-0.05859375,0.01171875q-0.28125,0.0703125-0.375,0.0703125q-0.12890625,0-0.22265625-0.046875q-0.01171875,0-0.03515625-0.01171875t-0.03515625-0.01171875q-0.0234375,0-0.076171875,0.01171875t-0.064453125,0.01171875q-0.046875,0-0.09375-0.046875q-0.0703125,0.0703125-0.22265625,0.0703125q-0.05859375,0-0.193359375-0.0234375t-0.193359375-0.0234375q-0.0703125,0-0.1640625,0.046875q-0.09375,0.0703125-0.31640625,0.0703125q-0.2109375,0-0.328125-0.0234375q-0.22265625-0.01171875-0.9609375-0.1171875q-0.15234375,0-0.24609375-0.0234375l-0.09375,0l-0.2109375,0l-0.10546875,0q-0.046875,0.0234375-0.1171875,0.0234375q-0.1171875,0-0.310546875-0.10546875t-0.263671875-0.12890625q-0.57421875-0.08203125-0.64453125-0.15234375q-0.046875-0.01171875-0.15234375,0.05859375t-0.1171875,0.0703125q-0.046875,0.0234375-0.09375,0.0234375q-0.0703125,0-0.0703125-0.10546875q0-0.08203125,0.09375-0.140625q-0.03515625-0.0234375-0.375-0.15234375t-0.46875-0.234375q-0.75-0.28125-1.1953125-0.83203125q-0.609375-0.38671875-0.71484375-0.52734375l-0.31640625-0.15234375l0-0.046875l0-0.09375q-0.046875-0.0234375-0.1640625-0.140625q-0.26953125-0.19921875-0.45703125-0.8203125q-0.19921875-0.2578125-0.26953125-0.38671875q-0.0234375-0.0234375-0.087890625,0t-0.146484375,0.052734375t-0.12890625,0.029296875q-0.09375,0-0.09375-0.10546875q0-0.046875,0.0234375-0.09375q0.01171875-0.046875,0.076171875-0.158203125t0.052734375-0.181640625q-0.05859375-0.05859375-0.05859375-0.140625q-0.05859375-0.12890625-0.1171875-0.33984375q-0.09375-0.234375-0.1640625-0.3515625q-0.05859375-0.09375-0.1171875-0.09375q-0.01171875,0-0.0703125,0.0234375t-0.10546875,0.0234375l-0.046875,0q-0.1171875-0.03515625-0.1171875-0.10546875q0-0.046875,0.05859375-0.1171875t0.10546875-0.09375q0.0234375,0,0.0234375-0.0703125q0-0.05859375-0.08203125-0.275390625t-0.08203125-0.275390625q-0.09375-0.1875-0.09375-0.48046875l0-0.09375q-0.0234375-0.0703125-0.0234375-0.15234375l0-0.0703125q0-0.0703125-0.09375-0.140625q-0.10546875-0.0703125-0.10546875-0.1875q0-0.08203125,0.046875-0.17578125q0.01171875-0.03515625,0.076171875-0.1171875t0.076171875-0.09375q0-0.0234375-0.01171875-0.076171875t-0.01171875-0.076171875q0-0.046875,0.01171875-0.09375l0.01171875-0.046875q-0.0703125-0.10546875-0.0703125-0.43359375q0-0.08203125,0.01171875-0.205078125t0.01171875-0.146484375q-0.0234375-0.09375-0.0234375-0.29296875q0-0.1875-0.0234375-0.2578125q-0.09375,0.046875-0.17578125,0.046875q-0.140625,0-0.140625-0.12890625q0-0.046875,0.0234375-0.09375q0.0234375-0.0234375,0.140625-0.134765625t0.12890625-0.169921875q0-0.0234375,0.01171875-0.134765625t0.01171875-0.134765625l0-0.0703125q0-0.31640625,0.0703125-0.45703125q0.01171875-0.0234375,0.0703125-0.2578125t0.140625-0.31640625q0-0.01171875-0.01171875-0.052734375t-0.01171875-0.064453125q0-0.1171875,0.24609375-0.7734375q-0.01171875-0.234375,0.169921875-0.638671875t0.205078125-0.580078125q0.03515625-0.15234375,0.19921875-0.26953125q0-0.0703125,0.0234375-0.1171875q0.0234375-0.08203125,0.1171875-0.134765625t0.1171875-0.087890625l0-0.046875q0-0.17578125,0.24609375-0.328125q0.046875-0.03515625,0.10546875-0.1171875t0.10546875-0.10546875q0.046875-0.03515625,0.140625-0.064453125t0.12890625-0.052734375q0-0.19921875,0.0234375-0.26953125q0.0703125-0.140625,0.3046875-0.28125q0.09375-0.17578125,0.41015625-0.33984375q0.0703125-0.046875,0.099609375-0.076171875t0.046875-0.087890625t0.052734375-0.1171875q0.0703125-0.1171875,0.3984375-0.24609375q0.046875-0.0234375,0.146484375-0.0703125t0.146484375-0.0703125q0.08203125-0.046875,0.240234375-0.169921875t0.240234375-0.169921875q0.140625-0.0703125,0.392578125-0.134765625t0.298828125-0.076171875q0.1171875-0.03515625,0.181640625,0.029296875t0.064453125,0.181640625q0,0.19921875-0.09375,0.29296875l0.10546875-0.052734375t0.123046875-0.076171875t0.099609375-0.0703125q-0.1171875-0.08203125-0.1171875-0.2578125q0-0.140625,0.1640625-0.140625q-0.0234375-0.046875-0.0234375-0.15234375q0-0.2578125,0.15234375-0.2578125q0.0234375,0,0.1171875,0.046875t0.1171875,0.046875q0.09375,0,0.357421875-0.1640625t0.439453125-0.12890625q0.046875,0.0234375,0.140625,0.0234375q0.15234375,0,0.404296875-0.123046875t0.310546875-0.134765625l0.08203125,0q0.09375,0,0.1875,0.046875q0.0703125,0.0703125,0.09375,0.0703125t0.03515625-0.01171875t0.041015625-0.046875t0.064453125-0.05859375q0.140625-0.046875,0.17578125-0.046875q0.046875,0,0.234375,0.046875l0.046875,0q0.046875,0,0.158203125-0.0234375t0.158203125-0.0234375q0.234375,0.046875,0.36328125,0.046875l0.28125,0l0.55078125,0q0.2109375-0.0703125,0.31640625-0.0703125q0.0703125,0,0.1171875,0.0234375q0.0703125,0.03515625,0.193359375,0.05859375t0.193359375,0.05859375q0.05859375,0,0.205078125,0.01171875t0.205078125,0.01171875l0.046875,0l0.140625,0l0.046875,0q0.046875,0,0.169921875,0.01171875t0.19921875,0.017578125t0.17578125,0.041015625t0.158203125,0.09375q0.29296875,0.0703125,0.62109375,0.29296875q0.08203125,0.01171875,0.275390625,0.087890625t0.275390625,0.076171875q0.5859375,0.08203125,0.75,0.24609375q0.3515625,0.15234375,0.55078125,0.43359375l0.28125,0.09375l0.0234375,0.046875l0,0.046875q0,0.0234375,0.0234375,0.046875q0.0234375,0,0.0703125,0.03515625t0.05859375,0.03515625q0.05859375,0.0234375,0.10546875,0.05859375l0.0703125,0.052734375t0.05859375,0.017578125q0.0234375,0,0.1875-0.08203125q0.1875-0.09375,0.26953125-0.09375q0.046875,0,0.0703125,0.0234375t0.0234375,0.0703125t-0.05859375,0.111328125t-0.146484375,0.123046875t-0.111328125,0.08203125q0.01171875,0.01171875,0.03515625,0.0234375q0.01171875,0,0.017578125,0.005859375t0.005859375,0.017578125q0.46875,0.3515625,0.55078125,0.48046875q0.03515625,0.0234375,0.2109375,0.216796875t0.31640625,0.216796875q0.03515625,0.01171875,0.2578125,0.33984375q0.15234375,0.09375,0.22265625,0.2109375q0.12890625,0.1875,0.140625,0.234375q0.08203125,0.12890625,0.1875,0.3984375t0.15234375,0.3515625q0.234375,0.31640625,0.3046875,0.62109375q0.29296875,0.421875,0.33984375,0.9375q0.1875,0.46875,0.1875,0.9375q0.10546875,0.24609375,0.10546875,0.66796875l0,0.19921875q0.0703125,0.17578125,0.0703125,0.57421875q0,0.22265625-0.046875,0.41015625q0.046875,0.1875,0.046875,0.375q0,0.19921875-0.046875,0.38671875q0,0.0234375,0.01171875,0.0703125t0.01171875,0.0703125q0,0.3046875-0.10546875,0.5625q0,0.45703125-0.09375,0.64453125q0,0.0234375,0.01171875,0.05859375t0.01171875,0.05859375q0,0.12890625-0.046875,0.287109375t-0.123046875,0.345703125t-0.087890625,0.234375q0,0.0234375-0.19921875,0.41015625q-0.01171875,0.05859375-0.03515625,0.10546875q-0.01171875,0.0234375-0.01171875,0.03515625t0.0703125,0.1171875q0,0.01171875,0.01171875,0.041015625t0.01171875,0.052734375q0,0.03515625-0.046875,0.12890625q-0.05859375,0.09375-0.3046875,0.28125l0,0.046875q0,0.08203125-0.046875,0.12890625q-0.046875,0.0234375-0.08203125,0.05859375t-0.041015625,0.064453125t-0.0234375,0.087890625t-0.029296875,0.09375q-0.1640625,0.328125-0.1875,0.45703125t-0.158203125,0.263671875t-0.251953125,0.123046875q-0.05859375,0.0234375-0.123046875,0.228515625t-0.134765625,0.251953125q-0.05859375,0.05859375-0.26953125,0.1640625q0,0.140625-0.09375,0.19921875q-0.05859375,0.03515625-0.181640625,0.140625t-0.205078125,0.140625q-0.09375,0.03515625-0.240234375,0.1875t-0.240234375,0.19921875q-0.234375,0.1171875-0.234375,0.33984375q0,0.09375,0.0703125,0.1640625q0.046875,0.0234375,0.1171875,0.09375t0.1171875,0.09375q0.0234375,0,0.064453125-0.01171875t0.064453125-0.01171875q0.0703125,0,0.1640625,0.046875q0.03515625,0,0.33984375,0.15234375l0.046875,0q0.2109375,0,0.375-0.10546875q0.05859375-0.08203125,0.251953125-0.228515625t0.228515625-0.216796875q0.01171875-0.03515625,0.052734375-0.1875t0.076171875-0.22265625l0-0.046875q0-0.2109375,0.140625-0.6328125q0.0703125-0.24609375,0.0703125-0.57421875q-0.0234375-0.046875-0.0234375-0.09375q0-0.12890625,0.169921875-0.181640625t0.404296875-0.052734375l0.24609375,0q0.0234375,0,0.09375-0.017578125t0.1171875-0.017578125q0.3046875,0,0.43359375,0.08203125q0.62109375,0,0.9609375,0.0234375q0.234375,0.046875,0.28125,0.2578125q0.0234375,0.0234375,0.0234375,0.0703125l0,0.0703125q0.12890625,0.0703125,0.15234375,0.10546875z M35.8046875,33.3828125l-0.10546875,0.0234375q0.03515625,0,0.10546875-0.0234375q0.140625-0.10546875,0.1640625-0.2109375q-0.796875,0.45703125-2.40234375,1.376953125t-2.40234375,1.376953125q0.03515625,0.01171875,0.064453125,0.0234375t0.041015625,0.017578125t0.0234375,0.005859375l0.0703125-0.046875q0.0703125-0.03515625,0.205078125-0.10546875t0.205078125-0.10546875q0.78515625-0.46875,0.83203125-0.50390625q0.28125-0.1875,1.78125-1.08984375q1.04296875-0.62109375,1.41796875-0.73828125z M36.0390625,31.80078125q-0.046875,0.046875-0.1640625,0.046875q-0.0234375,0.0234375-0.05859375,0.0703125t-0.05859375,0.0703125q-0.046875,0.046875-0.12890625,0.134765625t-0.15234375,0.158203125t-0.12890625,0.1171875q0.1640625-0.08203125,0.43359375-0.26953125t0.3984375-0.2578125q0-0.0703125-0.0703125-0.0703125l-0.0703125,0z M34.984375,31.82421875q-0.046875,0.0234375-0.09375,0.0234375q-0.0703125,0-0.09375,0.1171875q0,0.03515625-0.05859375,0.26953125q0.26953125-0.12890625,0.5625-0.38671875q-0.19921875,0-0.31640625-0.0234375z M34.33984375,32.94921875q0-0.046875,0.181640625-0.19921875t0.404296875-0.322265625t0.26953125-0.216796875q-0.03515625,0.03515625-0.2578125,0.146484375t-0.33984375,0.111328125q-0.09375,0-0.09375-0.09375l0-0.0703125q0.01171875-0.0703125,0.046875-0.2578125t0.046875-0.29296875l-0.0234375,0q-0.09375,0.28125-0.09375,0.48046875l0,0.0703125q0,0.45703125-0.140625,0.64453125z M32.37109375,34.12109375q-0.05859375,0-0.169921875,0.15234375t-0.22265625,0.345703125t-0.134765625,0.228515625q-0.421875,0.6328125-0.45703125,0.69140625q2.578125-1.48828125,2.70703125-1.55859375q0.26953125-0.15234375,0.80859375-0.48046875t0.8203125-0.48046875q0.05859375-0.03515625,0.181640625-0.09375t0.181640625-0.09375q0.0703125-0.0234375,0.0703125-0.41015625l0-0.1875q-0.12890625,0.0703125-1.74609375,1.125q-0.03515625,0.0234375-0.099609375,0.05859375t-0.10546875,0.052734375t-0.08203125,0.05859375t-0.052734375,0.087890625q-0.15234375,0.38671875-0.36328125,0.38671875q-0.046875,0-0.0703125-0.0234375q0.01171875,0.140625-0.10546875,0.216796875t-0.26953125,0.099609375q-0.140625,0.140625-0.26953125,0.140625q-0.0703125,0-0.1171875-0.046875q-0.328125-0.22265625-0.50390625-0.26953125z M31.984375,34.07421875q-0.10546875-0.0703125-0.140625-0.0703125t-0.064453125,0.029296875l-0.08203125,0.08203125t-0.099609375,0.087890625q-0.50390625,0.31640625-0.984375,0.66796875q0.22265625-0.12890625,0.6796875-0.392578125t0.69140625-0.404296875z M29.9921875,35.03515625l0.046875-0.0234375q-0.0234375,0-0.046875,0.0234375z M29.8515625,34.82421875l0.2578125-0.140625l-0.2578125,0.140625q0.8671875-0.48046875,1.44140625-0.9140625q-1.41796875,0.83203125-1.48828125,0.8671875z M29.21875,33.91015625l0.10546875-0.046875l-0.10546875,0.046875q0.55078125-0.2109375,1.51171875-0.890625q0.10546875-0.05859375,0.48046875-0.328125q0.03515625-0.17578125,0.22265625-0.26953125q0.0234375-0.0234375,0.328125-0.205078125t0.31640625-0.322265625q-0.31640625,0.1875-1.359375,0.849609375t-1.640625,0.978515625q0.10546875,0.0703125,0.140625,0.1875z M24.37890625,33.83984375l0.2578125-0.1640625l-0.2578125,0.1640625q1.18359375-0.73828125,2.203125-1.41796875l-0.0703125,0q-0.10546875,0-0.38671875,0.1875q-0.08203125,0.05859375-0.251953125,0.181640625t-0.251953125,0.181640625q-0.1171875,0.08203125-0.345703125,0.240234375t-0.345703125,0.240234375q-0.03515625,0.0234375-0.1640625,0.1171875t-0.24609375,0.181640625t-0.140625,0.087890625z M23.8984375,33.79296875l-0.0234375,0l0.0234375,0q0.10546875,0.0234375,0.29296875-0.087890625t0.439453125-0.298828125t0.275390625-0.2109375q0.46875-0.31640625,0.9140625-0.6328125q-0.33984375,0.19921875-1.0546875,0.609375t-1.06640625,0.62109375l0.19921875,0z M21.33203125,32.99609375q0.2578125-0.15234375,0.75-0.439453125t0.73828125-0.427734375q0.1171875-0.0703125,0.357421875-0.19921875t0.357421875-0.19921875q0.09375-0.09375,0.09375-0.57421875l0-0.08203125q-0.140625,0.09375-0.591796875,0.3984375t-0.673828125,0.474609375t-0.533203125,0.462890625t-0.498046875,0.5859375z M19.38671875,31.578125l0.1171875-0.0703125q-0.1171875,0.046875-0.1171875,0.0703125q0.94921875-0.50390625,1.58203125-0.9609375q0.48046875-0.29296875,0.73828125-0.46875q0.0234375-0.01171875,0.10546875-0.041015625t0.123046875-0.05859375t0.041015625-0.076171875q0-0.01171875-0.01171875-0.0234375t-0.01171875-0.0234375q-0.1171875-0.19921875-0.193359375-0.6796875t-0.193359375-0.69140625q-1.078125,1.125-2.0625,2.16796875q0.4921875-0.24609375,1.60546875-1.0078125q0.046875-0.046875,0.263671875-0.193359375t0.310546875-0.146484375q0.046875,0,0.046875,0.0703125l0,0.0703125q-0.046875,0.1875-0.6796875,0.650390625t-1.189453125,0.87890625t-0.474609375,0.533203125z M18.35546875,30.08984375q1.875-1.08984375,2.015625-1.171875q0.17578125-0.09375,0.509765625-0.287109375t0.498046875-0.287109375q0.0703125-0.03515625,0.0703125-0.140625q0-0.08203125-0.076171875-0.263671875t-0.087890625-0.240234375q-0.15234375,0.10546875-0.78515625,0.544921875t-0.97265625,0.697265625q-0.10546875,0.08203125-0.4453125,0.357421875t-0.515625,0.439453125q-0.01171875,0.01171875-0.10546875,0.076171875t-0.123046875,0.099609375t-0.029296875,0.08203125z M18.1796875,29.69140625q0.01171875,0.046875,0.181640625-0.09375t0.275390625-0.24609375q0.421875-0.33984375,0.7265625-0.55078125q-0.97265625,0.64453125-1.20703125,0.64453125q-0.046875,0-0.0703125-0.0234375q0.01171875,0.0234375,0.09375,0.26953125z M17.60546875,28.53125l0.24609375-0.1875l-0.24609375,0.1875q2.1328125-1.734375,2.9296875-2.47265625q-0.31640625,0.19921875-0.984375,0.5859375t-0.984375,0.57421875q-0.17578125,0.09375-0.50390625,0.287109375t-0.50390625,0.287109375q-0.09375,0.03515625-0.09375,0.1875q0,0.19921875,0.140625,0.55078125z M17.39453125,26.234375l0-0.0234375l0,0.0234375q-0.0234375-0.05859375,0.71484375-0.609375q0.17578125-0.15234375,0.375-0.3046875t0.4453125-0.333984375t0.38671875-0.287109375q0.22265625-0.1640625,0.64453125-0.46875t0.64453125-0.46875q0.03515625-0.0234375,0.22265625-0.12890625t0.345703125-0.216796875t0.181640625-0.181640625q-0.41015625,0.140625-1.37109375,0.73828125q-0.90234375,0.5625-2.1796875,1.53515625q-0.234375,0.15234375-0.31640625,0.15234375q-0.0703125,0-0.0703125-0.12890625l0-0.046875q0.046875-0.3046875,0.59765625-0.73828125q0.69140625-0.609375,2.15625-1.6640625q-1.04296875,0.609375-2.75390625,1.6875q-0.1171875,0.05859375-0.1171875,0.328125q0,0.15234375,0.05859375,0.4921875t0.05859375,0.4921875q0,0.10546875-0.0234375,0.15234375z M18.0390625,22.25q0,0.01171875,0.041015625,0t0.076171875-0.0234375l0.046875-0.0234375q-0.046875,0-0.1640625,0.046875q-0.1640625,0.10546875-0.1875,0.28125q0.3515625-0.140625,0.744140625-0.33984375t0.64453125-0.33984375t0.732421875-0.421875t0.65625-0.38671875q2.2734375-1.34765625,3.7265625-2.2734375q-0.4921875,0.26953125-4.53515625,2.58984375q-0.12890625,0.0703125-0.421875,0.240234375t-0.462890625,0.263671875t-0.421875,0.205078125t-0.474609375,0.181640625z M31.59765625,19.203125q-0.3046875,0.17578125-1.0546875,0.603515625t-1.1484375,0.662109375l0,0.0234375q0,0.0703125,0.345703125,0.556640625t0.345703125,0.498046875q0.140625-0.15234375,0.31640625-0.310546875t0.3046875-0.275390625t0.345703125-0.29296875t0.322265625-0.2578125t0.3515625-0.28125t0.328125-0.2578125q-0.4921875,0.26953125-1.46484375,0.9609375q-0.03515625,0.0234375-0.158203125,0.123046875t-0.234375,0.1640625t-0.181640625,0.052734375q-0.09375-0.03515625-0.09375-0.10546875q0-0.09375,0.123046875-0.26953125t0.275390625-0.33984375t0.15234375-0.17578125q0.3515625-0.3515625,1.125-1.078125z M32.8984375,20.234375l-0.1171875,0.0703125q0-0.01171875,0.1171875-0.0703125q-1.0546875,0.55078125-2.63671875,1.67578125q0.05859375,0.1171875,0.111328125,0.263671875t0.1171875,0.333984375t0.099609375,0.29296875q0.046875-0.03515625,0.134765625-0.099609375t0.134765625-0.099609375q-0.17578125-0.03515625-0.17578125-0.1640625q0-0.24609375,0.55078125-0.69140625q0.24609375-0.2109375,0.85546875-0.6796875t0.92578125-0.73828125q-0.046875-0.0234375-0.1171875-0.09375z M30.8828125,24.01953125l0-0.046875q0-0.09375,0.169921875-0.3046875t0.36328125-0.392578125t0.41015625-0.380859375t0.228515625-0.2109375q0.8671875-0.8671875,1.27734375-1.30078125q-0.19921875,0.09375-0.568359375,0.375t-0.416015625,0.31640625q-0.66796875,0.421875-1.55859375,0.9140625q-0.08203125,0.08203125-0.08203125,0.19921875t0.052734375,0.3515625t0.052734375,0.31640625q0.0703125,0.17578125,0.0703125,0.48046875q1.20703125-0.65625,1.81640625-1.0546875q0.046875-0.0234375,0.216796875-0.12890625t0.240234375-0.15234375l0.2109375-0.140625t0.228515625-0.1640625t0.193359375-0.1640625t0.1875-0.1875q-0.2578125,0.15234375-0.7734375,0.451171875t-0.76171875,0.439453125q-0.0234375,0.01171875-0.205078125,0.12890625t-0.380859375,0.240234375t-0.41015625,0.24609375t-0.369140625,0.169921875t-0.193359375,0z M34.29296875,22.6015625l-0.15234375,0.10546875q0.01171875,0.0234375,0.15234375-0.10546875q-0.09375,0.05859375-0.75,0.474609375t-0.896484375,0.568359375t-0.697265625,0.474609375t-0.80859375,0.603515625q2.3203125-1.359375,2.42578125-1.41796875q0.05859375-0.03515625,0.216796875-0.134765625t0.28125-0.1640625t0.228515625-0.087890625q0.046875-0.01171875,0.08203125,0.041015625t0.03515625,0.123046875l0,0.046875q-0.0234375,0.1171875-0.123046875,0.24609375t-0.193359375,0.205078125t-0.2578125,0.193359375t-0.19921875,0.15234375q-0.8671875,0.64453125-2.42578125,1.65234375q0.9375-0.515625,2.28515625-1.4296875q0.01171875-0.01171875,0.73828125-0.515625q0.0234375-0.0234375,0.08203125-0.0234375q0.1171875,0,0.1171875,0.17578125l0,0.0234375q-0.046875,0.1171875-0.17578125,0.234375t-0.328125,0.24609375t-0.24609375,0.1640625q0.5390625-0.33984375,0.84375-0.33984375q0.09375,0,0.1640625,0.03515625q-0.01171875-0.03515625-0.099609375-0.462890625t-0.169921875-0.767578125t-0.12890625-0.31640625z M34.71484375,24.5234375q-0.01171875,0-0.09375,0.076171875t-0.09375,0.076171875q0.1171875,0.03515625,0.1171875,0.1640625q0,0.10546875-0.08203125,0.251953125t-0.19921875,0.287109375t-0.26953125,0.29296875t-0.26953125,0.263671875t-0.216796875,0.19921875t-0.111328125,0.099609375q0.05859375-0.03515625,0.29296875-0.169921875t0.33984375-0.193359375t0.29296875-0.140625t0.3515625-0.12890625q-0.05859375-0.234375-0.05859375-0.328125q0-0.03515625,0.01171875-0.1171875t0.01171875-0.10546875q-0.0234375-0.1171875-0.0234375-0.375l0-0.15234375z M34.140625,29.01171875l-0.234375,0.1171875q0.0703125-0.0234375,0.234375-0.1171875q-0.1171875,0-0.3046875,0.09375q-0.10546875,0.03515625-0.6328125,0.26953125q-0.5859375,0.3046875-1.48828125,0.9375q0.41015625-0.22265625,1.212890625-0.65625t1.212890625-0.64453125z M29.67578125,31.82421875l-0.09375,0.046875q0.0234375,0,0.09375-0.046875q-0.33984375,0.17578125-0.50390625,0.3046875q0.08203125-0.046875,0.251953125-0.15234375t0.251953125-0.15234375z M27.953125,32.73828125l-0.31640625,0.1875q0.03515625,0,0.31640625-0.1875q-0.92578125,0.55078125-1.30078125,0.85546875q0.66796875-0.3984375,1.30078125-0.85546875z M26.9921875,31.89453125l0.0234375,0l-0.0234375,0q0.17578125-0.1171875,0.29296875-0.1171875q-0.0703125-0.15234375-0.1640625-0.287109375t-0.228515625-0.3046875t-0.193359375-0.251953125q-0.0703125-0.0703125-0.263671875-0.240234375t-0.263671875-0.240234375q-0.046875-0.0234375-0.1875,0.05859375t-0.1875,0.08203125q-0.12890625,0-0.12890625-0.2109375q-0.09375,0.046875-0.140625,0.046875q-0.03515625,0-0.087890625-0.01171875t-0.076171875-0.01171875q-0.05859375,0-0.15234375,0.046875q-0.140625,0.140625-0.3046875,0.140625q-0.12890625,0-0.17578125-0.046875t-0.1171875-0.046875q-0.08203125,0-0.1640625,0.19921875q-0.0234375,0.046875-0.087890625,0.134765625t-0.076171875,0.146484375q-0.01171875,0.046875-0.05859375,0.12890625t-0.0703125,0.1640625t-0.0234375,0.1640625l0,0.046875q0.0234375,0.0234375,0.046875,0.0234375t0.099609375-0.052734375t0.123046875-0.041015625q0.09375,0.03515625,0.09375,0.1171875q0,0.046875-0.0234375,0.0703125q0.0703125,0.03515625,0.1171875,0.08203125q0.140625,0.0703125,0.322265625,0.10546875t0.310546875,0.041015625t0.33984375,0.01171875t0.3046875,0.005859375l0.0703125,0q0.046875,0,0.1171875,0.01171875t0.1171875,0.01171875q0.10546875,0,0.17578125-0.046875q0.0234375-0.0234375,0.140625-0.0234375q0.12890625,0,0.50390625,0.09375z M27.30859375,28.53125l-0.19921875,0.15234375q0,0.01171875,0.052734375-0.0234375t0.10546875-0.076171875t0.041015625-0.052734375q-0.5390625,0.38671875-1.30078125,0.796875q-0.2109375,0.1171875-1.0546875,0.57421875q-0.046875,0.0234375-0.10546875,0.046875t-0.08203125,0.03515625t-0.041015625,0.03515625t-0.017578125,0.0703125l0,0.05859375q0,0.0234375,0.05859375,0.0234375q0.046875,0,0.2578125-0.10546875q0.01171875-0.01171875,0.1640625-0.181640625t0.29296875-0.169921875q0.03515625,0.01171875,0.087890625-0.029296875t0.1171875-0.099609375t0.087890625-0.0703125q0.59765625-0.38671875,1.67578125-0.890625q-0.0703125-0.0703125-0.140625-0.09375z M28.33984375,29.28125q-0.09375-0.046875-0.2578125,0.134765625t-0.22265625,0.298828125q-0.1640625,0.2109375-0.38671875,0.62109375q0.12890625-0.05859375,0.2578125-0.15234375t0.287109375-0.234375t0.216796875-0.1875q0.09375-0.09375,0.22265625-0.09375q0.0703125,0,0.0703125,0.09375q0.0234375,0.1875-0.029296875,0.41015625t-0.169921875,0.533203125t-0.140625,0.392578125q0.15234375-0.0703125,1.20703125-0.64453125q-0.05859375-0.046875-0.134765625-0.15234375t-0.158203125-0.240234375t-0.1171875-0.181640625q-0.08203125-0.1171875-0.322265625-0.298828125t-0.322265625-0.298828125z M30.8125,26.76171875q1.828125-1.13671875,2.3203125-1.41796875q0.08203125-0.046875,0.287109375-0.169921875t0.31640625-0.193359375t0.275390625-0.181640625t0.298828125-0.22265625t0.240234375-0.240234375q-0.1640625,0.01171875-0.375,0.10546875t-0.357421875,0.17578125t-0.380859375,0.234375t-0.3046875,0.19921875q-1.20703125,0.7734375-1.55859375,1.03125q-0.0234375,0.01171875-0.2578125,0.158203125t-0.36328125,0.275390625t-0.140625,0.24609375z M30.9765625,26.03515625l0.0234375-0.0234375q-0.0234375,0-0.0234375,0.0234375q0.1171875-0.1171875,0.1875-0.1640625q-0.1640625,0.08203125-0.1875,0.1640625z M31,25.4375l0.234375-0.140625l-0.234375,0.140625q0.17578125-0.10546875,0.744140625-0.462890625t0.837890625-0.5390625t0.69140625-0.498046875t0.7265625-0.609375q-0.515625,0.28125-1.7578125,1.0078125q-0.19921875,0.10546875-0.568359375,0.328125t-0.486328125,0.29296875q-0.2109375,0.1171875-0.2109375,0.26953125q0,0.1171875,0.0234375,0.2109375z M30.765625,27.98046875q-0.01171875-0.01171875,0.046875-0.052734375t0.146484375-0.099609375t0.169921875-0.111328125l0.1640625-0.10546875t0.09375-0.064453125q0.41015625-0.28125,0.80859375-0.59765625q0.73828125-0.515625,1.39453125-1.078125q0.0234375-0.0234375,0.140625-0.123046875t0.17578125-0.146484375t0.158203125-0.146484375t0.158203125-0.17578125t0.111328125-0.17578125t0.076171875-0.193359375q-0.36328125,0.140625-0.73828125,0.3515625t-0.8671875,0.544921875t-0.6796875,0.451171875q-0.1171875,0.05859375-0.24609375,0.140625t-0.287109375,0.181640625t-0.251953125,0.158203125q-0.03515625,0.0234375-0.146484375,0.076171875t-0.17578125,0.087890625t-0.12890625,0.10546875t-0.076171875,0.140625l0,0.328125q0,0.38671875-0.046875,0.50390625z M30.73046875,28.34375q0.7734375-0.45703125,0.8671875-0.52734375q0.19921875-0.1171875,0.603515625-0.375t0.603515625-0.375q0.7265625-0.421875,1.21875-0.73828125q0.01171875,0,0.22265625-0.1171875t0.36328125-0.216796875t0.1640625-0.146484375q-0.6328125,0.1875-1.921875,1.078125q-0.1875,0.1171875-0.57421875,0.375t-0.5859375,0.375q-0.33984375,0.24609375-0.55078125,0.375q-0.01171875,0.01171875-0.123046875,0.0703125t-0.193359375,0.1171875t-0.09375,0.10546875z M29.58203125,29.69140625l0-0.08203125l-0.0703125,0.08203125l0.0703125,0z M27.66015625,28.91796875l0-0.0234375l0,0.0234375q0.01171875-0.01171875,0.12890625-0.0703125q-0.0234375-0.0234375-0.08203125-0.0234375z M26.1953125,29.80859375q0.01171875,0,0.052734375,0.01171875t0.052734375,0.01171875q0.05859375,0,0.10546875-0.03515625t0.099609375-0.123046875t0.076171875-0.111328125q-0.31640625,0.1875-0.38671875,0.24609375z M27.7890625,31.625q0.1171875-0.08203125,0.50390625-0.3046875q-0.140625,0.046875-0.22265625,0.046875q-0.140625,0-0.140625-0.140625q0-0.10546875,0.0234375-0.15234375q0.26953125-0.99609375,0.28125-1.03125q-0.01171875,0.01171875-0.111328125,0.099609375t-0.140625,0.123046875t-0.134765625,0.10546875t-0.158203125,0.10546875t-0.15234375,0.064453125t-0.158203125,0.029296875q-0.19921875,0-0.19921875-0.140625q0-0.08203125,0.076171875-0.22265625t0.193359375-0.31640625l0.1171875-0.17578125q-0.515625,0.28125-0.8671875,0.45703125q0.31640625,0.1640625,0.703125,0.73828125q0.10546875,0.09375,0.240234375,0.333984375t0.146484375,0.380859375z M34.50390625,27.65234375q-1.0546875,0.66796875-3.169921875,1.998046875t-3.169921875,2.009765625q1.25390625-0.59765625,3.84375-2.26171875q0.703125-0.4453125,2.1328125-1.39453125q0.29296875-0.17578125,0.33984375-0.2109375q0.05859375-0.046875,0.09375-0.099609375t0.041015625-0.08203125t0.017578125-0.12890625t0.01171875-0.123046875q-0.1171875,0.08203125-0.1171875,0.1171875l0,0.0234375l0.0234375,0.046875q0,0.05859375-0.046875,0.10546875z M34.66796875,27.06640625l0.0234375-0.046875l-2.390625,1.51171875q-1.1015625,0.69140625-1.53515625,0.984375q-0.5859375,0.3515625-0.703125,0.52734375q0.90234375-0.41015625,2.90625-1.76953125q1.18359375-0.84375,1.2421875-0.890625q0.01171875-0.01171875,0.193359375-0.1640625t0.263671875-0.15234375z M34.7734375,26.1640625l0,0.0234375l0-0.0234375q0,0.01171875-0.240234375,0.15234375t-0.533203125,0.310546875t-0.31640625,0.181640625q-0.234375,0.15234375-0.685546875,0.421875t-0.673828125,0.421875q-0.87890625,0.50390625-1.46484375,0.92578125q-0.01171875,0.01171875-0.064453125,0.052734375t-0.10546875,0.076171875t-0.052734375,0.046875q-0.01171875,0.0234375-0.03515625,0.12890625t-0.08203125,0.15234375q0.01171875,0.09375-0.05859375,0.216796875t-0.08203125,0.169921875q0.5625-0.3515625,1.587890625-1.083984375t1.505859375-1.048828125q0.73828125-0.4921875,1.0078125-0.59765625q0.24609375-0.08203125,0.2578125-0.08203125q0.03515625-0.10546875,0.03515625-0.234375l0-0.2109375z M29.2421875,20.2578125q0.22265625-0.19921875,1.04296875-0.9140625q-0.19921875,0.1171875-0.591796875,0.357421875t-0.591796875,0.357421875q0.01171875,0.01171875,0.0703125,0.099609375t0.0703125,0.099609375z M28.59765625,20.3515625l-0.046875,0q-0.03515625,0-0.1875,0.0703125t-0.22265625,0.0703125q-0.0234375,0-0.1171875-0.046875q-0.046875-0.0234375-0.046875-0.09375q0-0.05859375,0.234375-0.29296875q-0.09375-0.0234375-0.29296875-0.12890625t-0.3046875-0.10546875q-0.09375,0-0.234375,0.0703125q-0.09375,0.046875-0.15234375,0.046875q-0.09375,0-0.1171875-0.1171875q0-0.05859375,0.0234375-0.10546875l0.0234375-0.03515625q0-0.0234375-0.09375-0.08203125q-0.0234375,0-0.3046875-0.0703125q-0.01171875,0-0.08203125,0.0234375t-0.09375,0.0234375q-0.046875,0-0.123046875-0.0234375t-0.111328125-0.0234375q-0.05859375,0-0.10546875,0.0234375q-0.01171875,0-0.064453125,0.01171875t-0.076171875,0.01171875t-0.064453125-0.01171875t-0.052734375-0.01171875q-0.05859375,0.0234375-0.123046875,0.029296875t-0.146484375,0.041015625q-0.1171875,0.05859375-0.1640625,0.05859375l-0.1171875-0.05859375q-0.17578125,0.17578125-0.36328125,0.17578125q-0.046875,0-0.140625-0.046875l-0.09375-0.046875q-0.0234375,0-0.17578125,0.1171875q-0.05859375,0.05859375-0.19921875,0.15234375t-0.19921875,0.15234375q-0.1640625,0.24609375-0.36328125,0.41015625q-0.45703125,0.45703125-0.8203125,0.45703125q-0.17578125-0.0234375-0.22265625,0.0234375t-0.0703125,0.169921875t-0.1171875,0.216796875q-0.0234375,0.10546875-0.12890625,0.3046875t-0.12890625,0.26953125q-0.1171875,0.36328125-0.29296875,0.50390625l0,0.046875q0,0.24609375-0.09375,0.43359375q-0.0234375,0.046875-0.052734375,0.228515625t-0.064453125,0.251953125q0,0.19921875-0.09375,0.52734375l0,0.046875q0,0.03515625-0.0234375,0.087890625t-0.0234375,0.087890625q0.0234375,0.0234375,0.0234375,0.140625q0,0.09375-0.0234375,0.140625q-0.03515625,0.2109375-0.03515625,0.41015625l0,0.50390625q0,0.36328125-0.0234375,0.52734375q0.0234375,0.046875,0.0234375,0.140625l0,0.15234375q0,0.10546875,0.05859375,0.1640625q0.0234375,0.0234375,0.0234375,0.0703125q0,0.03515625-0.0234375,0.1171875t-0.0234375,0.10546875q0.0234375,0.0703125,0.0234375,0.234375q0,0.08203125-0.01171875,0.24609375t-0.01171875,0.234375q0.05859375,0.234375,0.1875,0.638671875t0.1640625,0.533203125q0.046875,0.1171875,0.10546875,0.509765625t0.1640625,0.568359375q0.0703125,0.10546875,0.1171875,0.10546875t0.046875-0.31640625q0.0234375-0.33984375,0.64453125-0.71484375q0-0.01171875-0.01171875-0.052734375t-0.01171875-0.052734375q0-0.10546875,0.181640625-0.24609375t0.205078125-0.17578125q0.26953125-0.36328125,0.52734375-0.50390625q0.2109375-0.10546875,0.31640625-0.10546875l0.0703125,0q0.17578125,0.046875,0.234375,0.12890625l0.10546875,0.0703125l0.01171875-0.01171875q0.01171875-0.01171875,0.05859375-0.01171875l0.0703125,0q0.17578125,0,0.43359375-0.12890625q0.10546875-0.0703125,0.1640625-0.0703125l0.1875,0.046875q0.0703125,0.0234375,0.22265625,0.0234375q0.05859375,0,0.193359375-0.01171875t0.193359375-0.01171875q0.08203125,0,0.2578125,0.05859375q0.09375,0.03515625,0.263671875,0.076171875t0.298828125,0.087890625t0.234375,0.1171875q0.0234375,0.0234375,0.0703125,0.0234375q0.0234375,0,0.076171875-0.046875t0.134765625-0.046875l0.08203125-0.0234375q0.0703125,0,0.0703125,0.1171875q0,0.15234375-0.0703125,0.22265625q0.26953125,0.140625,0.3984375,0.3046875q0.01171875,0,0.140625,0.087890625t0.19921875,0.087890625q0.01171875,0,0.0234375-0.017578125t0.0234375-0.017578125q0.234375-0.1171875,0.31640625-0.1171875l0.0234375,0q0.1171875,0.03515625,0.1171875,0.1171875t-0.08203125,0.1875t-0.15234375,0.15234375q0.48046875,0.375,0.59765625,0.55078125q0.0234375-0.03515625,0.322265625-0.298828125t0.298828125-0.369140625l-0.052734375-0.10546875t-0.041015625-0.1171875q0-0.0703125,0.046875-0.09375q0.1640625-0.1171875,0.1875-0.140625q0-0.0234375,0.0703125-0.234375l0-0.31640625q0.0234375-0.046875,0.0234375-0.1640625l0-0.19921875l0-0.09375q-0.0703125,0.0703125-0.2109375,0.0703125q-0.0703125,0-0.0703125-0.09375l0-0.046875q0.0234375-0.05859375,0.1640625-0.1171875t0.15234375-0.10546875q0-0.046875-0.017578125-0.158203125t-0.017578125-0.169921875q0-0.31640625,0.10546875-0.45703125q0-0.08203125-0.017578125-0.099609375t-0.05859375-0.029296875t-0.076171875-0.0703125l0-0.046875q0-0.05859375,0.08203125-0.140625q0.15234375-0.08203125,0.1875-0.2109375q0.0234375-0.046875,0.0234375-0.12890625q0-0.046875-0.01171875-0.140625t-0.01171875-0.140625l0-0.0703125q-0.09375-0.24609375-0.09375-0.75q-0.0703125-0.24609375-0.0703125-0.59765625q-0.05859375-0.17578125-0.05859375-0.33984375q-0.0234375-0.046875-0.0234375-0.2109375q-0.01171875-0.0234375-0.05859375-0.029296875t-0.05859375-0.041015625l-0.0234375-0.046875q0-0.03515625,0.0234375-0.087890625t0.0234375-0.087890625l0-0.0234375q-0.046875-0.09375-0.046875-0.140625q-0.26953125-0.59765625-0.3046875-0.796875q-0.2109375-0.3046875-0.36328125-0.59765625q-0.12890625-0.140625-0.357421875-0.55078125t-0.439453125-0.57421875z M24.109375,28.09765625l0.0703125-0.046875q-0.0234375,0-0.0703125,0.046875q0.0234375,0.01171875,0.08203125-0.0234375t0.12890625-0.08203125t0.08203125-0.05859375q-0.12890625,0-0.29296875,0.1640625z M21.1796875,25.296875q0-0.046875-0.0234375-0.046875l-0.1171875,0.1171875l-0.28125,0.2109375q-0.328125,0.24609375-0.609375,0.43359375l0.1640625-0.10546875q0.15234375-0.09375,0.26953125-0.1640625t0.26953125-0.140625t0.234375-0.0703125q0.046875,0,0.0703125,0.0234375q0-0.1875,0.0234375-0.2578125z M17.44140625,27.04296875l0.140625-0.0703125l-0.140625,0.0703125q0.90234375-0.3984375,2.80078125-1.72265625q0.12890625-0.09375,0.41015625-0.287109375t0.41015625-0.287109375q0.08203125-0.0703125,0.111328125-0.099609375t0.03515625-0.1171875t0.017578125-0.146484375q-0.0234375-0.046875-0.0234375-0.2109375q0-0.3515625,0.10546875-0.609375q-1.1953125,0.796875-2.7421875,1.9921875q-0.69140625,0.5390625-0.984375,0.8203125q-0.12890625,0.140625-0.1875,0.29296875q0.046875,0.1171875,0.046875,0.375z M17.34765625,24.5234375q0.1875-0.10546875,0.55078125-0.333984375t0.55078125-0.333984375q-0.57421875,0.28125-0.62109375,0.31640625q-0.48046875,0.31640625-0.48046875,0.3515625z M17.55859375,23.5390625l0.09375-0.0703125l-0.09375,0.0703125q0.5859375-0.421875,1.259765625-0.890625t1.494140625-1.03125t1.27734375-0.87890625q-2.26171875,1.34765625-3.0703125,1.74609375q-0.03515625,0.01171875-0.275390625,0.12890625t-0.369140625,0.1640625q-0.09375,0.03515625-0.205078125,0.310546875t-0.111328125,0.427734375l0,0.0234375z M19.66796875,22.578125l0.48046875-0.28125q-0.1171875,0.0703125-0.48046875,0.28125l-0.0234375,0.0234375q0.2578125-0.15234375,0.990234375-0.57421875t1.130859375-0.66796875q-0.76171875,0.3515625-2.09765625,1.21875z M20.58203125,22.53125l-0.0234375,0.0234375l0.19921875-0.140625q-0.05859375,0.0234375-0.17578125,0.1171875q-0.0703125,0.046875-0.216796875,0.146484375t-0.216796875,0.146484375q0.8203125-0.515625,1.34765625-0.7265625q0.10546875-0.0703125,0.1875-0.0703125q0.03515625,0,0.0703125-0.076171875t0.0703125-0.169921875t0.03515625-0.10546875q-0.8671875,0.5859375-1.27734375,0.85546875z M21.56640625,22.4375q0,0.0234375-0.9140625,0.57421875q-0.890625,0.6328125-1.1953125,0.8671875q-1.078125,0.8203125-1.46484375,1.1953125q1.640625-1.18359375,2.42578125-1.62890625q0.65625-0.38671875,1.0078125-0.45703125q0.03515625-0.09375,0.08203125-0.298828125t0.05859375-0.251953125z M28.62109375,19.68359375q0.43359375-0.43359375,1.30078125-1.25390625q-0.234375,0.140625-0.8203125,0.46875t-0.890625,0.515625q0.28125,0.140625,0.41015625,0.26953125z M27.61328125,19.12109375l0.0703125-0.0703125l-0.0703125,0.0703125q0.1171875-0.1171875,0.703125-0.64453125q-0.9375,0.3984375-1.16015625,0.55078125q0.31640625,0.12890625,0.36328125,0.12890625q0.05859375,0,0.09375-0.03515625z M27.90625,18.01953125l-0.22265625,0.17578125q0.046875,0,0.22265625-0.17578125q-0.8203125,0.50390625-1.41796875,0.9140625q0.1640625,0,0.2109375,0.0234375q0.22265625-0.08203125,0.45703125-0.28125q0.1640625-0.12890625,0.75-0.65625z M25.9609375,18.93359375l0.1171875-0.09375l-0.1171875,0.09375q0.3515625-0.22265625,0.8203125-0.55078125q-0.515625,0.328125-0.8671875,0.52734375z M22.8203125,20.2109375q-0.0234375,0.08203125-0.65625,0.3984375q-0.38671875,0.2578125-0.62109375,0.43359375q-1.16015625,0.80859375-1.32421875,0.9140625q0.0234375-0.01171875,0.28125-0.181640625t0.328125-0.2109375t0.298828125-0.169921875t0.3515625-0.181640625t0.310546875-0.12890625t0.3515625-0.111328125q0.08203125-0.0234375,0.19921875-0.205078125t0.2109375-0.228515625l0-0.0234375q0-0.09375,0.123046875-0.17578125t0.146484375-0.12890625z M19.57421875,26.03515625l-0.1875,0.15234375q0.3515625-0.24609375,0.3515625-0.26953125q-0.046875,0.046875-0.1640625,0.1171875q-0.4921875,0.36328125-1.3125,0.84375q-0.52734375,0.29296875-0.6328125,0.33984375q-0.2109375,0.0703125-0.2109375,0.1875q0,0.0234375,0.01171875,0.05859375t0.01171875,0.05859375q0.12890625-0.09375,1.6171875-1.037109375t2.14453125-1.552734375q-0.36328125,0.26953125-1.62890625,1.1015625z M19.8203125,27.01953125l-0.19921875,0.17578125q0.31640625-0.24609375,0.31640625-0.26953125q-0.046875,0.0234375-0.1171875,0.09375q-0.29296875,0.2578125-0.908203125,0.76171875t-0.919921875,0.75q1.39453125-0.80859375,2.44921875-1.46484375q0.41015625-0.234375,0.48046875-0.28125q0.140625-0.10546875,0.28125-0.17578125l0-0.1640625l0-0.0703125q-0.0234375-0.09375-0.0234375-0.31640625q0-0.234375-0.0234375-0.328125q-0.09375,0.17578125-0.275390625,0.369140625t-0.322265625,0.31640625t-0.3984375,0.328125t-0.33984375,0.275390625z M21.203125,26.99609375q-0.3046875,0.2578125-0.92578125,0.7734375t-0.9375,0.76171875q0.2578125-0.140625,0.708984375-0.404296875t0.533203125-0.310546875q0.0703125-0.046875,0.228515625-0.123046875t0.234375-0.123046875t0.146484375-0.140625t0.0703125-0.2109375q0-0.046875-0.05859375-0.22265625z M22.26953125,30.40625q-0.45703125,0.48046875-1.41796875,1.39453125q0.26953125-0.15234375,6-3.45703125q-0.140625-0.046875-0.26953125-0.046875q-0.05859375-0.0234375-0.1875-0.03515625t-0.19921875-0.03515625q-0.234375,0.1171875-0.3046875,0.1171875q-0.01171875,0-0.03515625-0.01171875t-0.03515625-0.01171875q-0.046875-0.0234375-0.12890625-0.0234375q-0.0234375,0-0.087890625,0.0234375t-0.146484375,0.0234375l-0.1640625,0q-0.328125,0-0.5859375,0.140625q-0.12890625,0.08203125-0.462890625,0.310546875t-0.521484375,0.333984375q-0.046875,0.03515625-0.193359375,0.123046875t-0.240234375,0.158203125t-0.1640625,0.15234375q0,0.17578125-0.0703125,0.24609375q0,0.01171875,0.01171875,0.041015625t0.01171875,0.052734375t-0.046875,0.1171875q-0.3046875,0.52734375-0.52734375,0.52734375q-0.09375,0-0.234375-0.140625z M21.953125,31.578125q-0.52734375,0.29296875-0.984375,0.6796875q-0.1640625,0.10546875-0.1875,0.2109375q0.10546875,0.01171875,0.251953125-0.03515625t0.251953125-0.10546875t0.2578125-0.15234375t0.1875-0.1171875q0.5625-0.3515625,1.37109375-0.90234375q0.01171875-0.01171875,0.123046875-0.08203125t0.228515625-0.15234375t0.240234375-0.17578125t0.193359375-0.17578125t0.05859375-0.1171875q-1.546875,0.84375-1.9921875,1.125z M24.0625,32.6328125l-0.0234375,0.03515625l0.09375-0.10546875l0,0l-0.0703125,0.0703125q-0.46875,0.41015625-0.55078125,0.48046875q1.11328125-0.6328125,1.27734375-0.73828125q-0.1640625-0.03515625-0.38671875-0.1640625q0,0.15234375-0.33984375,0.421875z M24.8828125,32.71484375l-0.0234375,0.0234375l0.0703125-0.0703125l-0.046875,0.046875q-0.0703125,0.05859375-0.205078125,0.17578125t-0.205078125,0.17578125q0.17578125-0.09375,0.521484375-0.298828125t0.509765625-0.298828125q-0.140625-0.046875-0.1875-0.046875q-0.05859375,0-0.1171875,0.029296875t-0.087890625,0.052734375t-0.10546875,0.099609375t-0.123046875,0.111328125z M26.9453125,32.609375l-0.046875,0.05859375l0.046875-0.05859375q-0.08203125,0.1171875-0.251953125,0.3515625t-0.251953125,0.3515625q0.22265625-0.15234375,1.01953125-0.638671875t1.20703125-0.779296875q1.734375-1.16015625,2.47265625-1.60546875q0.69140625-0.43359375,2.12109375-1.25390625q0.6796875-0.3515625,0.97265625-0.41015625q0.09375-0.01171875,0.181640625-0.228515625t0.111328125-0.369140625q-2.6484375,1.78125-4.69921875,2.9765625q-0.87890625,0.55078125-1.53515625,0.84375q-0.26953125,0.12890625-0.48046875,0.31640625q-0.01171875,0.01171875-0.099609375,0.087890625t-0.140625,0.111328125t-0.12890625,0.076171875t-0.134765625,0.029296875q-0.2578125,0-0.36328125,0.140625z M31.26953125,33.265625q-1.04296875,0.9140625-1.20703125,1.078125q0.15234375-0.08203125,0.55078125-0.31640625t0.62109375-0.3515625q0.17578125-0.10546875,0.17578125-0.12890625l-0.046875-0.140625q-0.01171875-0.01171875-0.017578125-0.052734375t-0.017578125-0.064453125t-0.03515625-0.0234375l-0.0234375,0z M33.859375,21.5703125q-0.08203125-0.12890625-0.12890625-0.2578125q-0.3515625,0.3515625-1.048828125,1.060546875t-1.037109375,1.048828125q0.29296875-0.17578125,0.890625-0.521484375t0.890625-0.509765625q0.10546875-0.05859375,0.322265625-0.181640625t0.322265625-0.181640625q0.01171875-0.01171875-0.2109375-0.45703125z M33.51953125,20.87890625q-0.1171875-0.24609375-0.1875-0.29296875q-0.140625-0.0703125-0.15234375-0.0703125q-0.0234375,0-0.1171875,0.09375q-0.12890625,0.08203125-0.43359375,0.33984375q-0.8203125,0.62109375-1.125,0.8671875q-0.0234375,0.01171875-0.1875,0.140625t-0.2578125,0.228515625t-0.12890625,0.205078125q0.2578125,0.0703125,0.984375-0.48046875q0.4453125-0.29296875,1.078125-0.796875q0.31640625-0.2109375,0.38671875-0.2109375t0.0703125,0.1171875l0,0.046875q0.0234375-0.01171875,0.0703125-0.0234375t0.0703125-0.0234375z M32.69921875,20.01171875q-0.0234375-0.01171875-0.099609375-0.099609375t-0.111328125-0.087890625q-0.01171875,0-0.0234375,0.01171875t-0.0234375,0.01171875q-0.08203125,0.0703125-0.263671875,0.216796875t-0.263671875,0.216796875q-0.984375,0.78515625-1.37109375,1.1484375q1.37109375-0.92578125,2.1796875-1.37109375q0-0.01171875-0.01171875-0.0234375t-0.01171875-0.0234375z M31.890625,19.2734375q-0.0234375-0.01171875-0.10546875,0.046875t-0.193359375,0.1640625t-0.205078125,0.19921875t-0.1875,0.193359375t-0.10546875,0.111328125q-0.41015625,0.41015625-0.59765625,0.62109375q1.13671875-0.83203125,1.69921875-1.078125q-0.28125-0.2109375-0.3046875-0.2578125z M30.109375,19.77734375q0.234375-0.140625,0.69140625-0.404296875t0.6796875-0.392578125q-0.1640625-0.1640625-0.26953125-0.1640625q-0.0234375,0-0.046875,0.0234375q-0.09375,0.09375-0.328125,0.28125q-0.1171875,0.10546875-0.36328125,0.328125t-0.36328125,0.328125z M30.859375,18.5q-0.03515625-0.01171875-0.169921875-0.111328125t-0.216796875-0.099609375q-0.0703125,0-0.1171875,0.046875q-0.08203125,0.08203125-0.251953125,0.240234375t-0.251953125,0.240234375q-0.36328125,0.33984375-1.03125,1.0078125q0.0703125,0.046875,0.1171875,0.046875q0.03515625,0,0.1640625-0.09375q0.15234375-0.08203125,0.57421875-0.33984375q0.64453125-0.3984375,1.30078125-0.84375q-0.09375-0.046875-0.1171875-0.09375z M29.875,18.08984375q-0.0234375-0.0234375-0.046875-0.0234375q0.046875,0.046875,0.046875,0.12890625q0.0234375-0.01171875,0.09375-0.08203125q-0.0234375-0.0234375-0.046875-0.0234375l-0.046875,0z M29.51171875,17.97265625q-0.09375-0.046875-0.140625-0.046875q-0.09375,0-0.181640625,0.05859375t-0.19921875,0.17578125t-0.146484375,0.15234375q-0.1640625,0.140625-0.46875,0.427734375t-0.46875,0.439453125q0.10546875-0.046875,0.3515625-0.169921875t0.421875-0.216796875t0.328125-0.19921875q0.05859375-0.046875,0.205078125-0.181640625t0.275390625-0.234375t0.234375-0.134765625z M28.52734375,17.5859375q-0.0703125,0.01171875-0.140625,0l-0.0703125-0.0234375q-0.08203125,0-0.12890625,0.046875q0.01171875,0,0.052734375-0.01171875t0.052734375-0.01171875q0.1171875,0,0.1171875,0.15234375q0,0.08203125-0.0703125,0.1875q0.10546875-0.0703125,0.43359375-0.234375q-0.1640625-0.10546875-0.24609375-0.10546875z M27.28515625,17.46875l0.0234375,0l-0.0234375,0q-0.09375,0-0.181640625-0.03515625t-0.111328125-0.03515625q-0.05859375,0-0.1875,0.09375q-0.15234375,0.09375-0.4453125,0.287109375t-0.3984375,0.263671875q-0.421875,0.3046875-1.9453125,1.32421875q0.09375,0.01171875,0.24609375-0.046875t0.2109375-0.0703125q0.046875-0.01171875,0.099609375-0.09375t0.111328125-0.10546875q0.09375-0.0234375,0.181640625,0.052734375t0.134765625,0.076171875t0.0703125-0.0234375q0.0703125-0.03515625,0.205078125-0.123046875t0.205078125-0.123046875q1.2890625-0.76171875,2.203125-1.37109375q-0.05859375-0.01171875-0.181640625-0.041015625t-0.216796875-0.029296875z M24.54296875,17.6328125l-0.046875,0l0.0703125,0l-0.0234375,0l-0.046875,0q-0.05859375,0-0.1171875-0.046875t-0.09375-0.046875q-0.05859375,0-0.08203125,0.0234375q-0.05859375,0.046875-0.146484375,0.076171875t-0.134765625,0.076171875q-0.046875,0.03515625-0.15234375,0.05859375t-0.140625,0.05859375q-0.1171875,0.0703125-0.3515625,0.2578125q-0.2578125,0.2109375-0.796875,0.609375t-0.796875,0.59765625q-0.4453125,0.3515625-1.341796875,1.04296875t-1.341796875,1.04296875q1.01953125-0.59765625,3.38671875-1.828125q0.515625-0.26953125,1.060546875-0.603515625t1.2421875-0.791015625t1.025390625-0.66796875q-0.05859375,0-0.193359375-0.01171875t-0.205078125-0.01171875q-0.12890625,0-0.19921875,0.0234375l-0.09375,0q-0.1640625,0-0.2578125-0.046875q-0.046875,0.0234375-0.10546875,0.09375t-0.1171875,0.09375z M19.36328125,20.12890625q0-0.046875,0.0703125-0.046875q-0.0234375,0-0.0703125,0.046875q0.33984375-0.1640625,0.43359375-0.2109375q0.1171875-0.0703125,0.357421875-0.205078125t0.357421875-0.205078125q0.92578125-0.5625,2.1328125-1.359375q-0.2109375,0.046875-0.451171875,0.1640625t-0.533203125,0.298828125t-0.43359375,0.251953125q-0.2109375,0.140625-0.2578125,0.1640625q-0.09375,0.046875-0.1875,0.123046875t-0.216796875,0.181640625t-0.193359375,0.15234375q-0.140625,0.09375-0.24609375,0.09375l-0.0703125,0q-0.31640625,0.1875-0.33984375,0.19921875q-0.0703125,0.046875-0.17578125,0.17578125t-0.17578125,0.17578125z M22.9140625,17.90234375q-0.0234375,0.0234375-0.1171875,0.140625q0.140625-0.09375,0.1640625-0.1171875q-0.0234375-0.0234375-0.046875-0.0234375z M18.1796875,21.6171875q-0.046875,0.0234375-0.046875,0.12890625q0.64453125-0.50390625,1.83984375-1.40625t1.5-1.13671875q-0.1875,0.10546875-0.568359375,0.345703125t-0.62109375,0.380859375t-0.580078125,0.310546875t-0.6328125,0.275390625q-0.03515625,0.01171875-0.10546875,0.0234375t-0.10546875,0.0234375q-0.03515625,0-0.076171875,0.08203125l-0.09375,0.1875t-0.076171875,0.140625q-0.22265625,0.22265625-0.43359375,0.64453125z M18.73046875,28.3671875l-0.09375,0.0703125l0.29296875-0.1640625q-0.05859375,0.0234375-0.19921875,0.09375q-0.15234375,0.08203125-0.462890625,0.263671875t-0.462890625,0.263671875q0.2109375,0.2109375,0.2578125,0.43359375q0.01171875-0.05859375,0.08203125-0.12890625t0.19921875-0.15234375l0.12890625-0.08203125q0.12890625-0.10546875,0.380859375-0.322265625t0.380859375-0.322265625q0.19921875-0.15234375,0.580078125-0.46875t0.580078125-0.46875q-0.99609375,0.57421875-1.6640625,0.984375z M18.9765625,31.05078125q0.12890625,0.2578125,0.140625,0.26953125q0.0234375,0.0234375,0.0703125,0.0234375q0.03515625,0,0.111328125-0.0703125t0.111328125-0.09375q0.05859375-0.0703125,0.41015625-0.36328125q-0.31640625,0.2109375-0.5859375,0.2109375l-0.0703125,0q-0.1171875-0.03515625-0.1171875-0.09375q0-0.0703125,0.0703125-0.140625q0.09375-0.10546875,0.298828125-0.322265625t0.298828125-0.322265625q0.19921875-0.2109375,0.626953125-0.64453125t0.626953125-0.65625q-1.78125,1.04296875-2.47265625,1.41796875q0.05859375,0.09375,0.17578125,0.24609375t0.193359375,0.28125t0.111328125,0.2578125z M19.9140625,32.01171875l0.0234375,0l-0.0234375,0q0.08203125,0.0234375,0.134765625,0.0703125t0.076171875,0.046875q0.05859375,0,0.15234375-0.09375q0.1640625-0.140625,0.48046875-0.45703125l0.83203125-0.83203125q-0.41015625,0.28125-1.921875,1.078125q0.03515625,0.0234375,0.123046875,0.09375t0.123046875,0.09375z M20.46484375,32.4453125l0.0703125,0.0703125l0-0.0234375q0-0.17578125,0.26953125-0.38671875q-0.0703125,0.03515625-0.216796875,0.123046875t-0.216796875,0.123046875z M21.015625,32.83203125q0.0234375,0.01171875,0.052734375,0.0234375t0.041015625,0.017578125t0.0234375,0.005859375t0.017578125-0.01171875t0.0234375-0.041015625t0.052734375-0.064453125q0.0703125-0.1171875,0.26953125-0.31640625q-0.52734375,0.29296875-0.73828125,0.26953125q0.046875,0.046875,0.2578125,0.1171875z M22.0234375,33.359375q0.08203125-0.01171875,0.205078125-0.09375t0.26953125-0.205078125t0.193359375-0.158203125q0.05859375-0.046875,0.6796875-0.48046875q-0.09375,0.05859375-0.609375,0.392578125t-0.78515625,0.521484375q0.0234375,0.0234375,0.046875,0.0234375z M22.55078125,33.5q0.0703125,0.01171875,0.205078125-0.064453125t0.240234375-0.169921875t0.251953125-0.228515625t0.169921875-0.158203125q0.17578125-0.12890625,0.57421875-0.48046875q-0.234375,0.140625-0.7734375,0.515625t-0.85546875,0.5390625q0.03515625,0,0.099609375,0.0234375t0.087890625,0.0234375z M23.1953125,33.67578125q0.140625,0.03515625,0.328125-0.087890625t0.427734375-0.357421875t0.275390625-0.2578125q-0.22265625,0.1171875-0.626953125,0.357421875t-0.544921875,0.322265625q0.09375,0,0.140625,0.0234375z M25.57421875,33.88671875l-0.0234375,0l0.0234375,0q0.140625,0,0.310546875-0.15234375t0.275390625-0.31640625t0.2578125-0.416015625t0.1875-0.310546875q-0.73828125,0.4921875-1.875,1.1953125q0.0703125,0.0234375,0.24609375,0.0234375q0.0703125,0,0.234375-0.01171875t0.24609375-0.01171875l0.1171875,0z M29.46484375,34.296875q0.0234375,0.0234375,0.05859375,0.10546875t0.05859375,0.10546875q0.2109375-0.28125,0.59765625-0.57421875q0.03515625-0.03515625,0.31640625-0.263671875t0.498046875-0.43359375t0.193359375-0.263671875q-1.2421875,0.890625-1.83984375,1.1484375q0.05859375,0.05859375,0.1171875,0.17578125z M30.66015625,35.71484375l0.0234375,0l-0.0234375,0q0.03515625,0,0.158203125,0.052734375t0.158203125,0.087890625q0-0.1640625,0.1875-0.41015625q0.0703125-0.1171875,0.703125-1.03125q-0.2578125,0.1640625-0.78515625,0.462890625t-0.796875,0.451171875q0.0234375,0.03515625,0.375,0.38671875z M32.125,36.265625q0.0703125,0,0.1875-0.076171875t0.240234375-0.193359375t0.169921875-0.140625q0.24609375-0.17578125,0.703125-0.52734375q0.2109375-0.140625,0.603515625-0.4453125t0.591796875-0.4453125q-1.21875,0.703125-2.9765625,1.65234375q0.05859375,0.0234375,0.228515625,0.076171875t0.251953125,0.099609375z M33.54296875,36.1484375q0.046875-0.0234375,0.046875-0.05859375l-0.0703125,0.05859375l0.0234375,0q0.0703125-0.046875,0.216796875-0.146484375t0.216796875-0.146484375q-0.38671875,0.2109375-0.64453125,0.38671875l0.046875,0q0.03515625,0,0.08203125-0.041015625t0.08203125-0.052734375z M35.62890625,33.95703125l0-0.046875q-0.71484375,0.62109375-3.1640625,2.42578125q0.09375,0.03515625,0.28125-0.052734375t0.345703125-0.205078125t0.36328125-0.28125t0.251953125-0.1875q0.22265625-0.15234375,0.64453125-0.43359375l0.6328125-0.421875q0.03515625-0.0234375,0.123046875-0.09375t0.169921875-0.1171875t0.140625-0.05859375q0.03515625,0,0.076171875-0.111328125t0.08203125-0.24609375t0.052734375-0.169921875z"/><path fill="#0f172a" d="M62.704,36.352c0,0.056,0,0.112-0.028,0.196l-0.448,1.54c-0.112,0.364-0.28,0.616-0.588,0.616c-0.224,0-0.784-0.112-1.092-0.196c-1.708-0.504-3.108-1.596-4.228-2.324c-0.728-0.476-1.204-0.784-2.268-0.784c-0.42,0-0.812,0-1.204-0.028c-5.096-0.308-7.644-4.508-7.644-9.856c0-5.6,3.052-10.136,8.624-10.136c5.768,0,8.428,4.536,8.428,9.94c0,3.864-1.4,7.168-4.172,8.876c1.008,0.56,2.52,1.204,3.78,1.512c0.644,0.168,0.84,0.308,0.84,0.644z M58.392,25.404c0-4.2-1.372-6.972-4.648-6.972c-3.052,0-4.676,3.052-4.676,6.972c0,4.144,1.4,7.056,4.676,7.056c3.08,0,4.648-2.996,4.648-7.056z M78.79,34.336c0,0.588-0.168,0.784-0.728,0.784l-1.792,0c-0.364,0-0.644-0.196-0.672-0.56l-0.028-0.7c-1.288,1.036-2.828,1.596-4.452,1.596c-3.136,0-4.424-1.988-4.424-5.012l0-8.26c0-0.476,0.28-0.644,0.728-0.644l1.96,0c0.448,0,0.7,0.14,0.7,0.644l0,7.672c0,1.54,0.392,2.604,2.072,2.604c1.064,0,2.408-0.588,3.248-1.344l0-8.932c0-0.476,0.252-0.644,0.7-0.644l1.988,0c0.448,0,0.7,0.14,0.7,0.644l0,12.152z M87.736,17.984c0,1.092-0.952,1.764-1.876,1.764s-1.904-0.616-1.904-1.736s0.924-1.792,1.904-1.792c0.952,0,1.876,0.644,1.876,1.764z M87.568,34.42c0,0.504-0.224,0.7-0.7,0.7l-1.96,0c-0.504,0-0.728-0.196-0.728-0.7l0-12.236c0-0.476,0.28-0.644,0.728-0.644l1.96,0c0.448,0,0.7,0.14,0.7,0.644l0,12.236z M103.15,34.168c0,0.224-0.14,0.336-0.392,0.448c-1.344,0.616-2.576,0.84-4.06,0.84c-4.312,0-6.692-2.688-6.692-7c0-4.34,2.604-7.28,6.944-7.28c1.26,0,2.576,0.252,3.752,0.784c0.224,0.112,0.336,0.168,0.336,0.392c0,0.084-0.028,0.252-0.056,0.336l-0.364,1.484c-0.056,0.252-0.168,0.392-0.336,0.392c-0.084,0-0.196-0.056-0.308-0.112c-0.812-0.336-1.708-0.616-2.688-0.616c-2.408,0-3.78,1.708-3.78,4.452c0,2.688,1.232,4.536,3.64,4.536c1.204,0,1.96-0.224,2.94-0.616c0.084-0.028,0.196-0.084,0.28-0.084c0.168,0,0.28,0.14,0.336,0.336l0.364,1.232c0.056,0.196,0.084,0.364,0.084,0.476z M118.452,34.784c0,0.252-0.252,0.336-0.532,0.336l-2.408,0c-0.504,0-0.84-0.14-1.12-0.588l-3.584-5.88l-0.308,0.28l0,3.892l0,1.596c0,0.476-0.196,0.7-0.644,0.7l-2.1,0c-0.42,0-0.644-0.252-0.644-0.672l0-18.368c0-0.448,0.168-0.616,0.588-0.672l2.044-0.28c0.084,0,0.14-0.028,0.224-0.028c0.336,0,0.532,0.168,0.532,0.644l0,4.704l0,6.524l0.056,0l3.668-5.04c0.224-0.308,0.392-0.392,0.756-0.392l2.492,0c0.224,0,0.364,0.112,0.364,0.28c0,0.084-0.028,0.196-0.112,0.308l-4.004,5.04l4.536,7.084c0.112,0.168,0.196,0.364,0.196,0.532z M144.912,34.784c0,0.224-0.168,0.336-0.42,0.336l-2.548,0c-0.504,0-0.84-0.14-1.092-0.56l-4.032-6.58l-2.156,0l0,6.44c0,0.42-0.168,0.7-0.644,0.7l-2.296,0c-0.476,0-0.672-0.224-0.672-0.7l0-17.864c0-0.616,0.14-0.812,0.756-0.812l4.144,0c2.436,0,5.012,0.364,6.496,2.072c0.896,1.036,1.344,2.408,1.344,3.92c0,2.576-1.372,4.592-3.612,5.572l4.592,7.084c0.084,0.14,0.14,0.28,0.14,0.392z M140.124,21.792c0-2.436-1.624-3.304-4.06-3.304l-1.4,0l0,6.776l1.736,0c2.24,0,3.724-1.204,3.724-3.472z M160.886,28.288c0,0.672-0.224,0.812-0.924,0.812l-8.204,0c0.224,2.156,1.792,3.64,4.004,3.64c1.176,0,2.408-0.28,3.444-0.672c0.112-0.028,0.196-0.084,0.308-0.084c0.196,0,0.336,0.112,0.392,0.336l0.392,1.428c0.028,0.14,0.056,0.252,0.056,0.336c0,0.196-0.112,0.336-0.448,0.476c-1.372,0.616-3.248,0.896-4.704,0.896c-4.396,0-7-2.8-7-7.168c0-4.2,2.772-7.112,6.944-7.112c1.708,0,3.108,0.644,4.088,1.68c1.288,1.344,1.652,3.108,1.652,5.012l0,0.42z M157.554,26.888l0-0.308c-0.056-1.456-0.896-2.8-2.604-2.8c-1.82,0-2.912,1.456-3.136,3.108l5.74,0z M174.144,31.116c0,2.94-2.548,4.34-5.404,4.34c-1.456,0-3.052-0.42-4.312-0.98c-0.252-0.112-0.336-0.28-0.336-0.448c0-0.084,0.028-0.168,0.056-0.252l0.448-1.428c0.084-0.28,0.224-0.392,0.392-0.392c0.084,0,0.168,0,0.308,0.056c1.232,0.504,2.548,0.868,3.528,0.868c1.232,0,2.072-0.56,2.072-1.484c0-0.784-0.532-1.204-1.68-1.652l-2.212-0.84c-1.596-0.588-2.884-1.82-2.884-3.724c0-2.744,2.576-4.004,5.068-4.004c1.344,0,2.66,0.224,4.06,0.84c0.224,0.112,0.336,0.224,0.336,0.392c0,0.084-0.028,0.168-0.056,0.28l-0.476,1.512c-0.056,0.196-0.196,0.308-0.392,0.308c-0.084,0-0.196-0.028-0.28-0.056c-0.924-0.364-2.128-0.672-3.024-0.672c-1.176,0-1.764,0.644-1.764,1.288c0,0.616,0.308,1.008,1.372,1.428l2.52,1.036c1.484,0.616,2.66,1.764,2.66,3.584z M190.342,34.336c0,0.588-0.168,0.784-0.728,0.784l-1.792,0c-0.364,0-0.644-0.196-0.672-0.56l-0.028-0.7c-1.288,1.036-2.828,1.596-4.452,1.596c-3.136,0-4.424-1.988-4.424-5.012l0-8.26c0-0.476,0.28-0.644,0.728-0.644l1.96,0c0.448,0,0.7,0.14,0.7,0.644l0,7.672c0,1.54,0.392,2.604,2.072,2.604c1.064,0,2.408-0.588,3.248-1.344l0-8.932c0-0.476,0.252-0.644,0.7-0.644l1.988,0c0.448,0,0.7,0.14,0.7,0.644l0,12.152z M215.78,34.42c0,0.504-0.196,0.7-0.672,0.7l-1.96,0c-0.504,0-0.728-0.196-0.728-0.7l0-7.672c0-1.512-0.392-2.66-2.1-2.66c-1.064,0-2.296,0.56-3.164,1.26c0.056,0.252,0.112,4.004,0.112,4.396l0,4.676c0,0.504-0.196,0.7-0.672,0.7l-1.848,0c-0.504,0-0.728-0.196-0.728-0.7l0-7.672c0-1.484-0.308-2.66-2.016-2.66c-1.092,0-2.212,0.616-3.108,1.4l0,8.932c0,0.504-0.224,0.7-0.7,0.7l-1.96,0c-0.504,0-0.728-0.196-0.728-0.7l0-12.236c0-0.448,0.252-0.644,0.672-0.644l1.82,0c0.42,0,0.672,0.14,0.7,0.532l0.028,0.7c1.148-1.008,2.66-1.596,4.116-1.596c1.708,0,2.912,0.756,3.556,1.82c1.26-1.204,3.08-1.82,4.788-1.82c2.044,0,3.332,1.008,3.92,2.1c0.532,1.036,0.672,2.268,0.672,4.06l0,7.084z M232.846,28.288c0,0.672-0.224,0.812-0.924,0.812l-8.204,0c0.224,2.156,1.792,3.64,4.004,3.64c1.176,0,2.408-0.28,3.444-0.672c0.112-0.028,0.196-0.084,0.308-0.084c0.196,0,0.336,0.112,0.392,0.336l0.392,1.428c0.028,0.14,0.056,0.252,0.056,0.336c0,0.196-0.112,0.336-0.448,0.476c-1.372,0.616-3.248,0.896-4.704,0.896c-4.396,0-7-2.8-7-7.168c0-4.2,2.772-7.112,6.944-7.112c1.708,0,3.108,0.644,4.088,1.68c1.288,1.344,1.652,3.108,1.652,5.012l0,0.42z M229.514,26.888l0-0.308c-0.056-1.456-0.896-2.8-2.604-2.8c-1.82,0-2.912,1.456-3.136,3.108l5.74,0z"/></svg>
